<?xml version="1.0" encoding="UTF-8" standalone="no"?>
<svg
   version="1.1"
   viewBox="0 0 585.2173913043475 250.859680460653"
   width="585.2173913043475"
   height="250.859680460653"
   filter="invert(93%) hue-rotate(180deg)"
   id="svg136"
   sodipodi:docname="Drawing 2021-11-21 13.07.03.excalidraw.svg.svg"
   inkscape:version="1.1 (c68e22c387, 2021-05-23)"
   xmlns:inkscape="http://www.inkscape.org/namespaces/inkscape"
   xmlns:sodipodi="http://sodipodi.sourceforge.net/DTD/sodipodi-0.dtd"
   xmlns="http://www.w3.org/2000/svg"
   xmlns:svg="http://www.w3.org/2000/svg">
  <sodipodi:namedview
     id="namedview138"
     pagecolor="#505050"
     bordercolor="#eeeeee"
     borderopacity="1"
     inkscape:pageshadow="0"
     inkscape:pageopacity="0"
     inkscape:pagecheckerboard="0"
     showgrid="false"
     inkscape:zoom="1.0380758"
     inkscape:cx="270.21148"
     inkscape:cy="179.65933"
     inkscape:window-width="1366"
     inkscape:window-height="745"
     inkscape:window-x="-8"
     inkscape:window-y="-8"
     inkscape:window-maximized="1"
     inkscape:current-layer="svg136" />
  <!-- svg-source:excalidraw -->
  <defs
     id="defs4">
    <style
       id="style2">
      @font-face {
        font-family: &quot;Virgil&quot;;
        src: url(&quot;https://excalidraw.com/Virgil.woff2&quot;);
      }
      @font-face {
        font-family: &quot;Cascadia&quot;;
        src: url(&quot;https://excalidraw.com/Cascadia.woff2&quot;);
      }
    </style>
  </defs>
  <g
     transform="translate(16.588633409201634 177.52056468828323) rotate(358.95837332399003 267.9605026552181 -78.47992083103571)"
     stroke="none"
     fill="#000000"
     id="g10"
     style="fill:#000000">
    <path
       d="M -1.15,-21.46 Q -1.15,-21.46 -0.65,-23.22 -0.16,-24.98 0.72,-26.83 1.60,-28.69 2.98,-30.85 4.37,-33.01 5.54,-34.86 6.70,-36.71 8.16,-38.80 9.61,-40.88 12.43,-44.33 15.25,-47.77 17.92,-51.36 20.59,-54.96 24.26,-59.53 27.92,-64.09 31.33,-68.25 34.74,-72.42 38.42,-76.25 42.11,-80.08 46.76,-84.68 51.41,-89.27 55.57,-93.21 59.72,-97.15 64.63,-101.34 69.53,-105.54 74.47,-109.10 79.42,-112.66 84.65,-115.93 89.88,-119.21 94.31,-121.61 98.74,-124.02 103.78,-126.31 108.81,-128.59 113.14,-130.31 117.47,-132.04 121.56,-133.29 125.65,-134.54 130.49,-135.82 135.32,-137.10 139.47,-138.36 143.62,-139.63 148.94,-140.71 154.26,-141.78 160.18,-142.96 166.10,-144.15 171.09,-145.14 176.08,-146.14 181.97,-147.07 187.86,-148.00 193.18,-148.65 198.49,-149.29 204.75,-150.06 211.01,-150.83 216.85,-151.16 222.70,-151.50 229.16,-151.88 235.63,-152.27 241.51,-152.43 247.40,-152.60 253.93,-152.67 260.46,-152.74 270.73,-152.27 281.00,-151.80 288.49,-151.10 295.99,-150.40 302.88,-149.61 309.78,-148.81 315.83,-147.98 321.87,-147.15 327.30,-146.04 332.74,-144.93 339.70,-143.21 346.67,-141.49 352.11,-140.01 357.55,-138.54 362.35,-137.17 367.14,-135.80 372.29,-134.22 377.44,-132.65 382.50,-130.71 387.56,-128.77 391.81,-127.23 396.06,-125.69 400.72,-123.77 405.38,-121.85 410.80,-119.28 416.23,-116.71 421.00,-114.39 425.76,-112.06 429.66,-110.07 433.56,-108.09 437.74,-105.73 441.92,-103.38 446.49,-100.63 451.05,-97.89 455.83,-94.72 460.60,-91.54 464.19,-88.94 467.79,-86.34 471.81,-83.23 475.83,-80.13 489.46,-65.54 503.09,-50.95 509.43,-44.06 515.77,-37.18 519.11,-33.22 522.46,-29.25 524.49,-26.84 526.51,-24.43 528.28,-22.44 530.04,-20.46 531.23,-18.70 532.42,-16.95 533.19,-15.76 533.96,-14.57 534.73,-13.77 535.51,-12.97 536.30,-10.28 537.10,-7.60 537.12,-7.38 537.15,-7.17 537.10,-6.97 537.05,-6.76 536.94,-6.58 536.83,-6.40 536.67,-6.26 536.51,-6.12 536.31,-6.05 536.11,-5.97 535.90,-5.96 535.68,-5.95 535.48,-6.01 535.28,-6.06 535.10,-6.18 534.93,-6.31 534.80,-6.48 534.67,-6.65 534.60,-6.85 534.54,-7.05 534.54,-7.26 534.54,-7.47 534.61,-7.67 534.68,-7.88 534.81,-8.04 534.94,-8.21 535.12,-8.33 535.29,-8.45 535.50,-8.50 535.70,-8.56 535.91,-8.55 536.13,-8.53 536.32,-8.45 536.52,-8.37 536.68,-8.23 536.84,-8.10 536.95,-7.91 537.06,-7.73 537.10,-7.52 537.15,-7.31 537.12,-7.10 537.10,-6.89 537.01,-6.70 536.92,-6.51 536.77,-6.36 536.62,-6.20 536.43,-6.10 536.25,-6.01 536.04,-5.97 535.83,-5.94 535.62,-5.98 535.41,-6.01 535.22,-6.11 535.03,-6.21 534.89,-6.37 534.74,-6.52 534.66,-6.72 534.57,-6.91 534.57,-6.91 534.57,-6.91 532.98,-7.98 531.38,-9.06 530.27,-10.24 529.15,-11.43 528.40,-12.59 527.64,-13.75 526.69,-15.20 525.74,-16.64 523.93,-18.68 522.11,-20.72 520.09,-23.13 518.06,-25.53 514.78,-29.39 511.51,-33.26 505.18,-40.13 498.85,-47.00 485.58,-61.29 472.30,-75.57 468.35,-78.62 464.41,-81.67 460.90,-84.21 457.40,-86.75 452.75,-89.85 448.10,-92.96 443.59,-95.66 439.09,-98.36 435.02,-100.66 430.95,-102.96 427.10,-104.93 423.24,-106.89 418.50,-109.20 413.77,-111.51 408.48,-114.03 403.19,-116.54 398.64,-118.42 394.10,-120.29 389.80,-121.86 385.50,-123.43 380.63,-125.31 375.77,-127.18 370.67,-128.75 365.57,-130.32 360.82,-131.68 356.06,-133.05 350.68,-134.51 345.30,-135.97 338.45,-137.66 331.59,-139.35 326.34,-140.43 321.09,-141.51 315.11,-142.34 309.13,-143.17 302.29,-143.96 295.46,-144.74 288.10,-145.43 280.74,-146.12 270.63,-146.58 260.52,-147.04 254.04,-146.97 247.56,-146.91 241.76,-146.74 235.97,-146.58 229.49,-146.19 223.02,-145.81 217.36,-145.49 211.70,-145.17 205.44,-144.41 199.18,-143.64 193.96,-143.01 188.75,-142.38 182.97,-141.47 177.20,-140.55 172.21,-139.55 167.22,-138.55 161.30,-137.37 155.38,-136.18 150.33,-135.18 145.28,-134.17 141.03,-132.88 136.77,-131.59 132.04,-130.35 127.31,-129.11 123.44,-127.93 119.57,-126.75 115.36,-125.08 111.16,-123.41 106.30,-121.21 101.45,-119.02 97.17,-116.71 92.89,-114.39 87.81,-111.23 82.74,-108.06 77.98,-104.63 73.23,-101.20 68.44,-97.11 63.64,-93.01 59.53,-89.11 55.42,-85.21 50.82,-80.67 46.21,-76.13 42.68,-72.47 39.14,-68.81 35.75,-64.67 32.35,-60.53 28.75,-56.05 25.14,-51.56 22.36,-47.86 19.58,-44.16 16.85,-40.93 14.11,-37.69 12.69,-35.72 11.27,-33.76 10.05,-31.90 8.82,-30.04 7.49,-28.13 6.16,-26.22 5.01,-24.34 3.87,-22.45 2.51,-21.24 1.15,-20.02 1.04,-19.90 0.94,-19.77 0.81,-19.67 0.68,-19.57 0.53,-19.50 0.38,-19.44 0.22,-19.41 0.06,-19.39 -0.10,-19.40 -0.26,-19.41 -0.41,-19.46 -0.57,-19.51 -0.71,-19.60 -0.85,-19.69 -0.96,-19.80 -1.08,-19.92 -1.16,-20.06 -1.24,-20.20 -1.29,-20.36 -1.33,-20.52 -1.34,-20.68 -1.35,-20.84 -1.32,-21.00 -1.29,-21.16 -1.22,-21.31 -1.15,-21.46 -1.15,-21.46 L -1.15,-21.46 Z"
       id="path8"
       style="fill:#000000" />
  </g>
  <g
     transform="translate(183.2031345069592 57.82182889920452) rotate(270 -33.96828648909815 127.40526822016378)"
     stroke="none"
     fill="#364fc7"
     id="g14">
    <path
       d="M -22.76,1.07 Q -22.76,1.07 -23.16,2.26 -23.56,3.46 -25.13,4.12 -26.71,4.78 -28.06,4.91 -29.41,5.04 -29.87,6.33 -30.33,7.62 -30.92,9.40 -31.51,11.17 -32.04,13.15 -32.58,15.13 -33.13,18.97 -33.68,22.81 -34.04,25.15 -34.41,27.50 -34.67,30.28 -34.93,33.06 -35.28,38.61 -35.62,44.16 -35.82,60.87 -36.02,77.58 -36.05,84.70 -36.08,91.82 -36.03,96.71 -35.99,101.60 -35.85,104.90 -35.72,108.19 -35.60,111.49 -35.48,114.80 -35.26,118.03 -35.04,121.26 -34.83,124.54 -34.62,127.82 -34.41,131.73 -34.20,135.64 -34.00,138.53 -33.79,141.41 -33.53,145.15 -33.26,148.89 -33.03,152.36 -32.80,155.84 -32.59,158.55 -32.38,161.25 -32.22,164.97 -32.07,168.69 -31.95,170.85 -31.83,173.01 -31.72,176.48 -31.61,179.95 -31.56,182.68 -31.51,185.41 -31.49,187.83 -31.46,190.25 -31.52,194.43 -31.57,198.61 -31.65,201.65 -31.73,204.69 -31.82,207.24 -31.91,209.79 -32.07,212.16 -32.23,214.53 -32.41,217.40 -32.60,220.26 -32.92,223.41 -33.24,226.56 -33.54,229.16 -33.85,231.76 -34.16,234.12 -34.46,236.48 -34.90,238.81 -35.34,241.14 -35.85,242.86 -36.37,244.59 -36.86,246.46 -37.35,248.32 -37.77,249.79 -38.20,251.26 -38.91,252.17 -39.62,253.08 -41.42,254.33 -43.22,255.58 -43.40,255.69 -43.59,255.79 -43.79,255.84 -44.00,255.88 -44.21,255.86 -44.42,255.83 -44.62,255.74 -44.81,255.65 -44.96,255.50 -45.11,255.35 -45.21,255.16 -45.31,254.97 -45.34,254.76 -45.37,254.55 -45.33,254.34 -45.30,254.13 -45.19,253.95 -45.09,253.76 -44.94,253.62 -44.78,253.47 -44.59,253.39 -44.39,253.30 -44.18,253.28 -43.97,253.26 -43.76,253.31 -43.56,253.35 -43.37,253.47 -43.19,253.58 -43.06,253.74 -42.92,253.91 -42.85,254.10 -42.77,254.30 -42.76,254.51 -42.75,254.73 -42.81,254.93 -42.87,255.14 -42.99,255.31 -43.11,255.48 -43.29,255.61 -43.46,255.74 -43.66,255.80 -43.86,255.87 -44.07,255.86 -44.29,255.86 -44.49,255.79 -44.69,255.72 -44.85,255.59 -45.02,255.46 -45.14,255.28 -45.26,255.11 -45.31,254.90 -45.36,254.69 -45.35,254.48 -45.34,254.27 -45.25,254.07 -45.17,253.88 -45.03,253.72 -44.89,253.56 -44.89,253.56 -44.89,253.56 -44.27,251.64 -43.65,249.72 -43.30,248.30 -42.96,246.89 -42.46,244.90 -41.97,242.92 -41.54,241.48 -41.10,240.05 -40.70,237.88 -40.29,235.71 -39.99,233.39 -39.68,231.06 -39.37,228.52 -39.06,225.98 -38.75,222.93 -38.45,219.89 -38.27,217.01 -38.09,214.14 -37.93,211.86 -37.78,209.57 -37.68,207.05 -37.59,204.53 -37.51,201.54 -37.43,198.54 -37.38,194.42 -37.33,190.30 -37.35,187.90 -37.37,185.51 -37.42,182.82 -37.46,180.13 -37.57,176.74 -37.68,173.34 -37.81,171.13 -37.93,168.93 -38.07,165.32 -38.22,161.71 -38.43,158.97 -38.65,156.22 -38.88,152.76 -39.11,149.30 -39.37,145.56 -39.63,141.82 -39.83,138.89 -40.04,135.95 -40.24,132.08 -40.45,128.20 -40.66,124.93 -40.88,121.66 -41.11,118.33 -41.34,115.01 -41.45,111.72 -41.57,108.43 -41.71,105.04 -41.85,101.66 -41.89,96.73 -41.93,91.80 -41.90,84.65 -41.87,77.51 -41.66,60.66 -41.45,43.80 -41.09,38.15 -40.74,32.50 -40.45,29.55 -40.17,26.59 -39.80,24.28 -39.43,21.96 -38.79,17.79 -38.16,13.62 -37.57,11.48 -36.99,9.34 -36.31,7.32 -35.63,5.30 -34.70,3.38 -33.78,1.46 -31.71,0.36 -29.64,-0.74 -28.26,-0.85 -26.88,-0.95 -25.64,-1.01 -24.40,-1.07 -24.26,-1.15 -24.12,-1.23 -23.97,-1.28 -23.81,-1.33 -23.65,-1.33 -23.49,-1.34 -23.33,-1.31 -23.17,-1.28 -23.02,-1.21 -22.87,-1.14 -22.74,-1.04 -22.62,-0.94 -22.52,-0.81 -22.42,-0.68 -22.35,-0.53 -22.29,-0.38 -22.26,-0.22 -22.23,-0.06 -22.25,0.09 -22.26,0.25 -22.31,0.41 -22.36,0.56 -22.44,0.70 -22.53,0.84 -22.65,0.95 -22.76,1.07 -22.76,1.07 L -22.76,1.07 Z"
       id="path12" />
  </g>
  <g
     transform="translate(398.19892184211255 53.64167363184663) rotate(270 11.097553683357376 132.7797843798134)"
     stroke="none"
     fill="#364fc7"
     id="g18">
    <path
       d="M 0.86,-1.01 Q 0.86,-1.01 2.00,-0.62 3.14,-0.24 4.11,1.80 5.07,3.84 5.66,5.23 6.25,6.62 6.87,8.72 7.49,10.82 7.92,12.35 8.36,13.87 8.87,16.68 9.39,19.49 9.80,22.77 10.21,26.05 10.53,29.52 10.84,32.99 11.13,37.23 11.42,41.47 11.62,46.04 11.81,50.60 11.97,55.30 12.12,59.99 12.19,64.06 12.26,68.13 12.29,73.31 12.32,78.48 12.33,83.43 12.34,88.38 12.34,93.23 12.34,98.09 12.35,103.59 12.35,109.09 12.35,113.49 12.35,117.89 12.35,122.52 12.36,127.14 12.41,131.84 12.47,136.53 12.49,139.92 12.51,143.31 12.58,146.79 12.65,150.27 12.68,153.15 12.71,156.03 12.78,159.98 12.85,163.94 12.88,167.70 12.91,171.47 12.93,174.44 12.94,177.42 13.00,180.72 13.06,184.02 13.15,186.80 13.23,189.57 13.32,192.82 13.42,196.07 13.52,199.52 13.62,202.96 13.71,206.49 13.81,210.02 13.91,212.88 14.01,215.75 14.16,218.31 14.32,220.86 14.44,222.64 14.56,224.42 14.73,226.55 14.89,228.67 15.08,230.21 15.26,231.75 15.60,233.24 15.94,234.72 16.23,236.63 16.52,238.54 16.94,240.23 17.37,241.92 17.59,243.07 17.80,244.23 18.00,245.40 18.21,246.58 18.45,247.70 18.70,248.82 18.93,250.05 19.17,251.28 19.38,252.50 19.58,253.71 19.76,254.90 19.94,256.08 20.43,257.33 20.91,258.58 21.20,259.68 21.50,260.79 21.93,262.50 22.36,264.22 22.55,264.32 22.73,264.43 22.88,264.59 23.02,264.74 23.10,264.94 23.19,265.13 23.21,265.34 23.22,265.56 23.17,265.76 23.12,265.97 23.01,266.15 22.90,266.33 22.73,266.46 22.57,266.60 22.37,266.67 22.17,266.74 21.95,266.75 21.74,266.76 21.54,266.70 21.34,266.63 21.16,266.51 20.99,266.39 20.86,266.21 20.74,266.04 20.68,265.84 20.61,265.64 20.62,265.42 20.62,265.21 20.70,265.01 20.77,264.81 20.90,264.65 21.03,264.48 21.21,264.37 21.39,264.25 21.60,264.20 21.80,264.15 22.01,264.16 22.23,264.18 22.42,264.26 22.62,264.35 22.78,264.49 22.93,264.63 23.04,264.81 23.15,265.00 23.19,265.21 23.23,265.41 23.20,265.62 23.17,265.84 23.08,266.03 22.98,266.22 22.83,266.37 22.68,266.52 22.49,266.61 22.30,266.71 22.09,266.74 21.88,266.77 21.68,266.73 21.47,266.69 21.47,266.69 21.47,266.69 18.74,264.53 16.02,262.37 15.73,261.33 15.44,260.29 14.84,258.71 14.23,257.14 14.01,255.94 13.78,254.73 13.56,253.56 13.35,252.38 13.13,251.23 12.92,250.08 12.65,248.84 12.38,247.60 12.18,246.45 11.98,245.30 11.78,244.22 11.58,243.14 11.13,241.28 10.67,239.43 10.42,237.76 10.16,236.08 9.77,234.26 9.38,232.44 9.19,230.79 9.00,229.13 8.83,226.98 8.66,224.83 8.53,223.03 8.40,221.22 8.24,218.59 8.08,215.95 7.98,213.07 7.88,210.18 7.78,206.66 7.68,203.13 7.59,199.69 7.49,196.24 7.40,192.99 7.31,189.75 7.22,186.94 7.14,184.14 7.07,180.79 7.01,177.44 7.00,174.48 6.99,171.51 6.96,167.78 6.93,164.04 6.86,160.06 6.79,156.09 6.76,153.24 6.74,150.39 6.67,146.87 6.60,143.35 6.57,139.98 6.54,136.61 6.49,131.87 6.43,127.14 6.43,122.52 6.43,117.89 6.43,113.49 6.43,109.09 6.43,103.59 6.43,98.09 6.43,93.24 6.42,88.39 6.41,83.45 6.40,78.51 6.38,73.36 6.37,68.21 6.33,64.17 6.30,60.14 6.21,55.47 6.11,50.80 6.00,46.29 5.89,41.77 5.71,37.59 5.54,33.41 5.32,30.02 5.09,26.63 4.77,23.48 4.45,20.33 4.05,17.72 3.65,15.10 3.29,13.58 2.92,12.06 2.47,10.22 2.02,8.38 1.45,6.97 0.88,5.57 0.48,4.28 0.07,2.99 -0.39,2.00 -0.86,1.01 -0.97,0.89 -1.08,0.77 -1.15,0.63 -1.23,0.49 -1.27,0.33 -1.31,0.18 -1.32,0.02 -1.32,-0.13 -1.28,-0.29 -1.25,-0.45 -1.18,-0.59 -1.10,-0.73 -1.00,-0.85 -0.90,-0.98 -0.77,-1.07 -0.63,-1.16 -0.49,-1.22 -0.34,-1.28 -0.18,-1.30 -0.02,-1.33 0.13,-1.31 0.29,-1.29 0.44,-1.24 0.59,-1.19 0.73,-1.10 0.86,-1.01 0.86,-1.01 L 0.86,-1.01 Z"
       id="path16" />
  </g>
  <g
     transform="translate(222.5199800199797 220.859680460653) rotate(0 10.41477272727272 2.642045454545432)"
     stroke="none"
     fill="#364fc7"
     id="g22">
    <path
       d="M 1.32,-1.45 Q 1.32,-1.45 1.98,0.65 2.65,2.76 2.75,4.48 2.85,6.20 2.90,7.86 2.95,9.52 3.11,10.70 3.26,11.88 3.30,12.59 3.33,13.31 3.33,13.59 3.33,13.88 3.26,14.16 3.20,14.44 3.06,14.70 2.93,14.95 2.74,15.17 2.55,15.38 2.32,15.55 2.08,15.71 1.81,15.82 1.54,15.92 1.26,15.96 0.97,15.99 0.68,15.96 0.40,15.93 0.13,15.83 -0.13,15.72 -0.37,15.56 -0.61,15.40 -0.80,15.18 -0.99,14.97 -1.12,14.72 -1.26,14.46 -1.33,14.18 -1.40,13.90 -1.25,12.81 -1.09,11.72 -1.22,10.54 -1.35,9.35 -1.26,7.69 -1.18,6.03 -1.14,4.21 -1.10,2.40 -0.76,0.37 -0.42,-1.64 0.21,-3.53 0.85,-5.42 1.70,-6.71 2.55,-8.00 3.68,-8.97 4.82,-9.94 6.17,-10.44 7.52,-10.94 8.74,-10.96 9.97,-10.99 11.26,-10.63 12.55,-10.26 13.74,-9.49 14.93,-8.72 15.77,-7.34 16.61,-5.96 16.94,-4.44 17.26,-2.92 16.89,-0.92 16.51,1.06 15.79,2.48 15.06,3.89 13.80,5.07 12.54,6.26 11.61,6.84 10.68,7.42 9.62,7.60 8.57,7.79 8.18,7.64 7.78,7.48 7.57,7.48 7.36,7.49 7.16,7.44 6.95,7.39 6.77,7.29 6.58,7.20 6.42,7.06 6.26,6.92 6.14,6.75 6.02,6.58 5.94,6.38 5.86,6.18 5.84,5.98 5.81,5.77 5.83,5.56 5.86,5.35 5.93,5.15 6.00,4.95 6.12,4.78 6.24,4.60 6.39,4.46 6.55,4.32 6.74,4.22 6.92,4.12 7.13,4.07 7.33,4.02 8.30,3.47 9.28,2.92 11.20,3.13 13.12,3.33 14.59,3.96 16.07,4.58 17.13,5.42 18.18,6.25 19.14,7.47 20.11,8.69 20.95,11.14 21.80,13.60 21.85,13.81 21.90,14.01 21.89,14.22 21.87,14.44 21.79,14.63 21.70,14.83 21.56,14.99 21.42,15.14 21.23,15.25 21.05,15.35 20.84,15.39 20.63,15.43 20.42,15.40 20.21,15.38 20.02,15.28 19.83,15.19 19.68,15.04 19.53,14.89 19.43,14.70 19.34,14.51 19.31,14.30 19.28,14.09 19.32,13.88 19.36,13.67 19.47,13.48 19.57,13.30 19.73,13.16 19.89,13.01 20.08,12.93 20.28,12.85 20.49,12.83 20.70,12.81 20.91,12.86 21.11,12.91 21.29,13.03 21.47,13.14 21.60,13.31 21.74,13.47 21.81,13.67 21.88,13.87 21.89,14.08 21.90,14.30 21.83,14.50 21.77,14.70 21.65,14.88 21.52,15.05 21.35,15.17 21.18,15.30 20.98,15.36 20.77,15.42 20.56,15.42 20.35,15.41 20.15,15.34 19.95,15.26 19.78,15.13 19.62,15.00 19.50,14.82 19.39,14.64 19.39,14.64 19.39,14.64 18.19,12.85 16.99,11.05 15.70,9.55 14.41,8.04 13.39,7.49 12.38,6.95 11.32,6.57 10.26,6.19 9.02,6.83 7.78,7.48 7.57,7.48 7.36,7.49 7.16,7.44 6.95,7.39 6.77,7.29 6.58,7.20 6.42,7.06 6.26,6.92 6.14,6.75 6.02,6.58 5.94,6.38 5.86,6.19 5.84,5.98 5.81,5.77 5.83,5.56 5.86,5.35 5.93,5.15 6.00,4.95 6.12,4.78 6.24,4.60 6.39,4.46 6.55,4.32 6.74,4.22 6.92,4.12 7.13,4.07 7.33,4.02 8.52,3.59 9.72,3.17 11.02,1.61 12.33,0.06 12.69,-1.11 13.04,-2.28 12.70,-3.82 12.37,-5.37 11.10,-6.05 9.83,-6.73 8.62,-6.66 7.41,-6.59 6.13,-5.29 4.84,-3.98 4.29,-2.44 3.74,-0.91 3.43,0.79 3.12,2.49 3.08,4.39 3.05,6.29 2.95,7.59 2.86,8.89 3.09,11.10 3.33,13.31 3.33,13.59 3.33,13.88 3.26,14.16 3.20,14.44 3.06,14.70 2.93,14.95 2.74,15.17 2.55,15.38 2.32,15.55 2.08,15.71 1.81,15.82 1.54,15.92 1.26,15.96 0.97,15.99 0.68,15.96 0.40,15.93 0.13,15.83 -0.13,15.72 -0.37,15.56 -0.61,15.40 -0.80,15.19 -0.99,14.97 -1.12,14.72 -1.26,14.46 -1.33,14.18 -1.40,13.90 -1.51,13.20 -1.62,12.49 -1.79,11.05 -1.96,9.61 -1.97,8.00 -1.98,6.39 -2.00,4.74 -2.03,3.10 -1.68,0.91 -1.32,-1.26 -1.32,-1.42 -1.31,-1.58 -1.26,-1.74 -1.22,-1.89 -1.13,-2.03 -1.05,-2.17 -0.94,-2.28 -0.83,-2.40 -0.69,-2.48 -0.55,-2.57 -0.40,-2.62 -0.25,-2.67 -0.09,-2.68 0.06,-2.69 0.22,-2.66 0.38,-2.63 0.52,-2.57 0.67,-2.51 0.80,-2.41 0.93,-2.31 1.03,-2.19 1.13,-2.06 1.19,-1.91 1.26,-1.77 1.29,-1.61 1.32,-1.45 1.32,-1.45 L 1.32,-1.45 Z"
       id="path20" />
  </g>
  <g
     transform="translate(254.83816183816168 237.18922591519848) rotate(0 4 -12.352272727272748)"
     stroke="none"
     fill="#364fc7"
     id="g26">
    <path
       d="M -1.50,-2.74 Q -1.50,-2.74 -2.25,-3.70 -3.00,-4.66 -3.28,-6.11 -3.57,-7.56 -3.52,-9.20 -3.48,-10.85 -3.29,-12.18 -3.10,-13.51 -2.86,-14.70 -2.62,-15.88 -1.89,-18.03 -1.17,-20.17 -0.59,-21.09 -0.01,-22.00 0.97,-22.76 1.96,-23.51 3.20,-23.56 4.44,-23.61 5.41,-23.13 6.38,-22.65 7.25,-21.64 8.13,-20.62 8.85,-19.20 9.58,-17.78 10.04,-16.56 10.49,-15.33 10.85,-13.81 11.22,-12.29 11.51,-10.73 11.81,-9.17 11.87,-7.79 11.93,-6.42 11.55,-4.51 11.17,-2.61 11.14,-2.40 11.12,-2.19 11.02,-2.00 10.93,-1.81 10.78,-1.66 10.63,-1.50 10.44,-1.41 10.26,-1.31 10.05,-1.28 9.84,-1.25 9.63,-1.29 9.42,-1.32 9.23,-1.43 9.04,-1.53 8.90,-1.69 8.76,-1.84 8.67,-2.04 8.59,-2.23 8.57,-2.44 8.55,-2.65 8.59,-2.86 8.64,-3.07 8.76,-3.25 8.87,-3.43 9.03,-3.56 9.20,-3.70 9.40,-3.77 9.59,-3.85 9.81,-3.86 10.02,-3.87 10.22,-3.81 10.43,-3.74 10.60,-3.62 10.77,-3.50 10.90,-3.33 11.03,-3.16 11.09,-2.96 11.16,-2.75 11.15,-2.54 11.15,-2.33 11.08,-2.13 11.01,-1.93 10.88,-1.76 10.74,-1.59 10.57,-1.48 10.39,-1.36 10.18,-1.31 9.98,-1.25 9.77,-1.27 9.55,-1.28 9.36,-1.37 9.16,-1.45 9.00,-1.59 8.84,-1.73 8.73,-1.91 8.63,-2.10 8.59,-2.30 8.54,-2.51 8.54,-2.51 8.54,-2.51 7.99,-4.25 7.45,-5.98 7.26,-7.13 7.08,-8.27 6.80,-9.75 6.52,-11.23 6.24,-12.52 5.97,-13.81 5.66,-14.87 5.35,-15.93 3.98,-17.27 2.61,-18.61 2.00,-16.84 1.39,-15.07 1.16,-13.98 0.94,-12.90 0.77,-11.78 0.59,-10.65 0.60,-8.41 0.61,-6.18 0.78,-4.99 0.96,-3.80 1.00,-3.64 1.05,-3.49 1.05,-3.32 1.06,-3.16 1.03,-3.00 1.00,-2.85 0.93,-2.70 0.86,-2.55 0.76,-2.43 0.65,-2.30 0.53,-2.20 0.40,-2.11 0.25,-2.04 0.10,-1.98 -0.05,-1.95 -0.21,-1.93 -0.37,-1.94 -0.53,-1.95 -0.69,-2.00 -0.84,-2.05 -0.98,-2.14 -1.12,-2.23 -1.23,-2.34 -1.34,-2.46 -1.42,-2.60 -1.50,-2.74 -1.50,-2.74 L -1.50,-2.74 Z"
       id="path24" />
  </g>
  <g
     transform="translate(253.58816183816168 229.82558955156208) rotate(0 4.448863636363626 -0.7159090909090935)"
     stroke="none"
     fill="#364fc7"
     id="g30">
    <path
       d="M -0.33,-1.54 Q -0.33,-1.54 1.28,-2.20 2.91,-2.85 4.34,-2.85 5.77,-2.85 7.45,-2.69 9.13,-2.54 9.34,-2.52 9.55,-2.49 9.74,-2.40 9.94,-2.31 10.09,-2.16 10.24,-2.02 10.34,-1.83 10.44,-1.64 10.47,-1.43 10.50,-1.22 10.47,-1.01 10.43,-0.80 10.33,-0.61 10.23,-0.43 10.07,-0.28 9.91,-0.14 9.72,-0.05 9.53,0.03 9.32,0.05 9.10,0.07 8.90,0.02 8.69,-0.01 8.51,-0.13 8.33,-0.24 8.19,-0.40 8.06,-0.56 7.98,-0.76 7.90,-0.96 7.89,-1.17 7.88,-1.38 7.94,-1.59 8.00,-1.79 8.12,-1.97 8.24,-2.14 8.41,-2.27 8.58,-2.40 8.79,-2.46 8.99,-2.53 9.20,-2.53 9.41,-2.52 9.61,-2.45 9.81,-2.38 9.98,-2.25 10.15,-2.12 10.27,-1.95 10.39,-1.77 10.44,-1.57 10.50,-1.36 10.48,-1.15 10.47,-0.94 10.39,-0.74 10.31,-0.54 10.17,-0.38 10.03,-0.22 9.85,-0.11 9.66,-0.01 9.45,0.03 9.25,0.07 9.25,0.07 9.25,0.07 7.68,0.40 6.12,0.73 4.89,1.00 3.66,1.26 1.90,1.22 0.15,1.17 -0.00,1.18 -0.17,1.19 -0.34,1.16 -0.50,1.13 -0.65,1.07 -0.80,1.00 -0.93,0.89 -1.07,0.79 -1.17,0.66 -1.27,0.53 -1.34,0.38 -1.41,0.22 -1.44,0.06 -1.47,-0.10 -1.46,-0.26 -1.45,-0.43 -1.40,-0.59 -1.35,-0.75 -1.26,-0.89 -1.17,-1.03 -1.06,-1.15 -0.94,-1.27 -0.79,-1.35 -0.65,-1.44 -0.49,-1.49 -0.33,-1.54 -0.33,-1.54 L -0.33,-1.54 Z"
       id="path28" />
  </g>
  <g
     transform="translate(274.9517982017978 222.16649864247114) rotate(0 -0.09090909090909349 4.80681818181818)"
     stroke="none"
     fill="#364fc7"
     id="g34">
    <path
       d="M 1.27,-0.15 Q 1.27,-0.15 1.88,1.17 2.49,2.51 2.58,3.77 2.67,5.04 1.58,7.69 0.49,10.34 0.32,10.46 0.15,10.59 -0.04,10.65 -0.24,10.72 -0.46,10.71 -0.67,10.71 -0.87,10.64 -1.07,10.56 -1.24,10.43 -1.40,10.30 -1.52,10.12 -1.63,9.94 -1.69,9.74 -1.74,9.53 -1.72,9.32 -1.71,9.11 -1.62,8.91 -1.54,8.72 -1.40,8.56 -1.26,8.40 -1.08,8.29 -0.89,8.19 -0.68,8.15 -0.47,8.10 -0.26,8.13 -0.05,8.16 0.13,8.25 0.32,8.35 0.47,8.49 0.62,8.64 0.72,8.83 0.81,9.02 0.84,9.23 0.87,9.44 0.83,9.65 0.80,9.86 0.69,10.05 0.59,10.23 0.43,10.38 0.27,10.52 0.08,10.60 -0.11,10.69 -0.32,10.71 -0.53,10.73 -0.74,10.68 -0.94,10.63 -1.12,10.51 -1.30,10.40 -1.44,10.23 -1.57,10.07 -1.64,9.87 -1.72,9.67 -1.73,9.46 -1.73,9.25 -1.67,9.04 -1.61,8.84 -1.49,8.67 -1.36,8.49 -1.36,8.49 -1.36,8.49 -1.67,6.89 -1.98,5.29 -2.02,4.15 -2.06,3.01 -1.75,1.58 -1.45,0.15 -1.45,-0.01 -1.45,-0.17 -1.41,-0.33 -1.36,-0.49 -1.29,-0.64 -1.21,-0.79 -1.10,-0.91 -0.99,-1.03 -0.85,-1.12 -0.71,-1.22 -0.56,-1.27 -0.40,-1.33 -0.24,-1.35 -0.07,-1.37 0.08,-1.35 0.25,-1.32 0.40,-1.26 0.55,-1.20 0.69,-1.11 0.82,-1.01 0.93,-0.89 1.04,-0.76 1.12,-0.62 1.19,-0.47 1.23,-0.31 1.27,-0.15 1.27,-0.15 L 1.27,-0.15 Z"
       id="path32" />
  </g>
  <g
     transform="translate(274.3267982017978 222.09831682428938) rotate(0 8.8125 1.6704545454545325)"
     stroke="none"
     fill="#364fc7"
     id="g38">
    <path
       d="M 1.08,-1.75 Q 1.08,-1.75 2.73,-0.62 4.38,0.50 5.38,1.66 6.37,2.83 7.33,3.71 8.29,4.59 9.20,5.20 10.11,5.80 11.17,6.33 12.24,6.86 13.34,6.93 14.45,7.01 14.15,5.09 13.85,3.16 13.65,1.98 13.46,0.80 13.20,-0.55 12.95,-1.90 12.65,-3.80 12.35,-5.69 12.32,-5.90 12.29,-6.11 12.32,-6.32 12.36,-6.53 12.46,-6.72 12.56,-6.91 12.71,-7.05 12.87,-7.20 13.06,-7.29 13.26,-7.37 13.47,-7.39 13.68,-7.42 13.89,-7.37 14.09,-7.32 14.27,-7.21 14.46,-7.10 14.59,-6.94 14.73,-6.78 14.81,-6.58 14.88,-6.38 14.89,-6.17 14.90,-5.95 14.85,-5.75 14.79,-5.55 14.67,-5.37 14.55,-5.20 14.38,-5.07 14.21,-4.94 14.00,-4.87 13.80,-4.81 13.59,-4.81 13.38,-4.81 13.18,-4.88 12.98,-4.95 12.81,-5.08 12.64,-5.21 12.52,-5.39 12.40,-5.56 12.35,-5.77 12.29,-5.97 12.31,-6.18 12.32,-6.40 12.40,-6.59 12.48,-6.79 12.62,-6.95 12.76,-7.11 12.94,-7.22 13.12,-7.33 13.33,-7.37 13.54,-7.42 13.75,-7.39 13.96,-7.37 14.15,-7.28 14.34,-7.19 14.50,-7.04 14.65,-6.89 14.75,-6.70 14.85,-6.52 14.85,-6.52 14.85,-6.52 15.69,-4.95 16.54,-3.37 17.45,-1.89 18.36,-0.41 18.74,0.74 19.12,1.89 19.49,3.48 19.86,5.08 19.76,6.53 19.66,7.99 19.19,8.97 18.72,9.95 17.76,10.88 16.79,11.82 15.76,12.14 14.73,12.47 13.31,12.45 11.89,12.43 10.83,12.09 9.78,11.74 8.40,11.03 7.02,10.32 5.79,9.46 4.56,8.60 3.38,7.48 2.20,6.37 1.05,5.00 -0.08,3.63 -0.58,1.69 -1.08,-0.24 -1.16,-0.38 -1.23,-0.52 -1.27,-0.67 -1.31,-0.83 -1.31,-0.99 -1.31,-1.15 -1.27,-1.30 -1.24,-1.46 -1.16,-1.60 -1.09,-1.74 -0.98,-1.86 -0.88,-1.98 -0.75,-2.07 -0.62,-2.16 -0.47,-2.22 -0.32,-2.28 -0.16,-2.30 -0.00,-2.32 0.14,-2.30 0.30,-2.28 0.45,-2.23 0.60,-2.17 0.73,-2.08 0.87,-1.99 0.97,-1.87 1.08,-1.75 1.08,-1.75 L 1.08,-1.75 Z"
       id="path36" />
  </g>
  <g
     transform="translate(308.3495254745254 217.63240773338032) rotate(0 2.028409090909065 8.80681818181818)"
     stroke="none"
     fill="#364fc7"
     id="g42">
    <path
       d="M -1.12,1.04 Q -1.12,1.04 -1.86,1.41 -2.60,1.78 -2.63,3.58 -2.66,5.38 -2.45,7.29 -2.24,9.21 -1.72,10.85 -1.20,12.50 0.74,13.82 2.69,15.15 4.22,15.49 5.74,15.83 6.52,15.00 7.31,14.18 6.99,13.08 6.67,11.98 5.33,11.06 4.00,10.13 3.79,10.08 3.59,10.02 3.41,9.90 3.23,9.79 3.10,9.62 2.97,9.45 2.90,9.25 2.83,9.05 2.83,8.84 2.83,8.62 2.90,8.42 2.96,8.22 3.09,8.05 3.22,7.88 3.39,7.76 3.57,7.64 3.77,7.58 3.98,7.52 4.19,7.53 4.40,7.54 4.60,7.62 4.80,7.70 4.96,7.83 5.12,7.97 5.24,8.15 5.35,8.33 5.39,8.54 5.44,8.75 5.42,8.96 5.40,9.17 5.31,9.36 5.22,9.56 5.08,9.71 4.93,9.87 4.74,9.97 4.56,10.07 4.35,10.10 4.14,10.14 3.93,10.11 3.72,10.07 3.53,9.98 3.34,9.88 3.19,9.72 3.05,9.57 2.96,9.38 2.87,9.19 2.84,8.97 2.82,8.76 2.86,8.56 2.91,8.35 3.01,8.17 3.12,7.98 3.28,7.84 3.44,7.71 3.64,7.63 3.84,7.55 4.05,7.53 4.26,7.52 4.26,7.52 4.26,7.52 7.09,7.52 9.92,7.53 11.07,8.90 12.21,10.27 12.61,12.07 13.01,13.87 12.53,15.81 12.05,17.75 11.30,18.79 10.55,19.84 9.28,20.66 8.01,21.49 6.77,21.72 5.52,21.96 4.07,21.86 2.63,21.76 1.10,21.22 -0.42,20.68 -2.75,19.22 -5.08,17.76 -6.11,16.30 -7.13,14.84 -7.61,13.55 -8.08,12.27 -8.32,11.11 -8.56,9.95 -8.71,8.47 -8.86,6.99 -8.78,5.39 -8.70,3.79 -8.01,1.99 -7.32,0.18 -6.40,-0.89 -5.49,-1.97 -4.19,-2.45 -2.90,-2.94 -1.79,-2.26 -0.69,-1.58 -0.53,-1.54 -0.38,-1.49 -0.24,-1.41 -0.10,-1.33 0.01,-1.22 0.12,-1.11 0.21,-0.97 0.29,-0.83 0.34,-0.68 0.39,-0.53 0.40,-0.37 0.42,-0.21 0.39,-0.05 0.36,0.10 0.30,0.25 0.24,0.39 0.14,0.52 0.04,0.65 -0.07,0.75 -0.20,0.85 -0.34,0.92 -0.49,0.99 -0.64,1.02 -0.80,1.05 -0.96,1.04 -1.12,1.04 -1.12,1.04 L -1.12,1.04 Z"
       id="path40" />
  </g>
  <g
     transform="translate(328.2699800199799 216.29149864247125) rotate(0 5.607954545454547 12.284090909090885)"
     stroke="none"
     fill="#364fc7"
     id="g46">
    <path
       d="M 1.38,0 Q 1.38,0 1.94,1.53 2.50,3.07 2.81,4.67 3.13,6.27 3.40,7.50 3.68,8.74 3.98,10.04 4.28,11.34 4.54,12.47 4.80,13.60 5.08,15.07 5.36,16.54 6.05,18.52 6.74,20.49 8.05,20.75 9.37,21.02 9.40,20.81 9.43,20.60 9.53,20.41 9.62,20.22 9.77,20.07 9.93,19.92 10.12,19.83 10.31,19.74 10.52,19.71 10.73,19.68 10.94,19.73 11.15,19.77 11.33,19.88 11.52,19.98 11.66,20.14 11.79,20.30 11.88,20.50 11.96,20.70 11.97,20.91 11.99,21.12 11.93,21.33 11.88,21.53 11.76,21.71 11.65,21.89 11.48,22.02 11.31,22.15 11.11,22.22 10.91,22.29 10.70,22.29 10.48,22.30 10.28,22.23 10.08,22.17 9.91,22.04 9.74,21.91 9.62,21.74 9.50,21.57 9.44,21.36 9.38,21.16 9.38,20.94 9.39,20.73 9.47,20.53 9.54,20.34 9.68,20.17 9.82,20.01 10.00,19.90 10.18,19.78 10.38,19.74 10.59,19.69 10.80,19.71 11.01,19.73 11.21,19.81 11.40,19.90 11.56,20.04 11.71,20.19 11.82,20.37 11.92,20.56 11.96,20.77 11.99,20.98 11.99,20.98 11.99,20.98 10.12,23.87 8.24,26.77 7.13,26.93 6.02,27.10 4.80,26.63 3.58,26.17 2.79,25.39 2.01,24.61 1.08,22.59 0.15,20.57 -0.32,19.13 -0.79,17.69 -1.04,16.31 -1.30,14.93 -1.55,13.70 -1.81,12.46 -2.00,11.08 -2.19,9.70 -2.35,8.23 -2.51,6.77 -2.50,4.92 -2.50,3.07 -1.94,1.53 -1.38,0 -1.36,-0.16 -1.33,-0.33 -1.28,-0.48 -1.22,-0.64 -1.12,-0.77 -1.03,-0.91 -0.90,-1.02 -0.78,-1.13 -0.63,-1.21 -0.48,-1.29 -0.32,-1.33 -0.16,-1.37 0.00,-1.37 0.16,-1.37 0.32,-1.33 0.48,-1.29 0.63,-1.21 0.78,-1.13 0.90,-1.02 1.03,-0.91 1.12,-0.77 1.22,-0.64 1.28,-0.48 1.34,-0.33 1.36,-0.16 1.38,0.00 1.38,0.00 L 1.38,0 Z"
       id="path44" />
  </g>
  <g
     transform="translate(332.0995254745253 230.72331682428933) rotate(0 2.3125 -2.1477272727272734)"
     stroke="none"
     fill="#364fc7"
     id="g50">
    <path
       d="M -0.59,-1.81 Q -0.59,-1.81 -0.02,-2.60 0.54,-3.40 2.24,-3.71 3.93,-4.02 4.05,-4.19 4.16,-4.37 4.33,-4.51 4.49,-4.64 4.69,-4.71 4.89,-4.79 5.10,-4.79 5.32,-4.80 5.52,-4.74 5.72,-4.67 5.89,-4.55 6.07,-4.43 6.19,-4.25 6.31,-4.08 6.38,-3.88 6.44,-3.68 6.43,-3.46 6.43,-3.25 6.36,-3.05 6.28,-2.85 6.15,-2.69 6.02,-2.52 5.84,-2.41 5.66,-2.29 5.45,-2.24 5.25,-2.19 5.03,-2.21 4.82,-2.22 4.63,-2.31 4.43,-2.39 4.27,-2.53 4.12,-2.67 4.01,-2.86 3.91,-3.04 3.87,-3.25 3.83,-3.46 3.85,-3.67 3.88,-3.88 3.98,-4.07 4.07,-4.26 4.22,-4.41 4.37,-4.56 4.56,-4.66 4.75,-4.75 4.96,-4.78 5.17,-4.81 5.38,-4.77 5.59,-4.73 5.78,-4.63 5.96,-4.52 6.10,-4.36 6.25,-4.20 6.33,-4.01 6.41,-3.81 6.43,-3.60 6.45,-3.39 6.40,-3.18 6.35,-2.98 6.35,-2.98 6.35,-2.98 4.34,-0.95 2.34,1.08 1.37,0.90 0.41,0.72 0.25,0.76 0.09,0.81 -0.06,0.81 -0.23,0.81 -0.39,0.77 -0.55,0.74 -0.70,0.66 -0.84,0.59 -0.97,0.48 -1.09,0.38 -1.19,0.24 -1.29,0.11 -1.35,-0.04 -1.41,-0.19 -1.43,-0.35 -1.45,-0.52 -1.44,-0.68 -1.42,-0.84 -1.37,-1.00 -1.31,-1.15 -1.22,-1.29 -1.13,-1.43 -1.01,-1.54 -0.88,-1.65 -0.74,-1.73 -0.59,-1.81 -0.59,-1.81 L -0.59,-1.81 Z"
       id="path48" />
  </g>
  <g
     transform="translate(329.5199800199799 220.31422591519845) rotate(0 4.357954545454547 -3.2215909090909136)"
     stroke="none"
     fill="#364fc7"
     id="g54">
    <path
       d="M -1.54,-0.81 Q -1.54,-0.81 -2.16,-1.96 -2.78,-3.11 -2.05,-4.65 -1.31,-6.18 -0.27,-7.00 0.75,-7.82 1.98,-8.21 3.21,-8.61 6.41,-7.77 9.61,-6.93 9.82,-6.90 10.03,-6.87 10.22,-6.77 10.41,-6.67 10.56,-6.52 10.71,-6.37 10.80,-6.17 10.89,-5.98 10.91,-5.77 10.94,-5.56 10.90,-5.35 10.85,-5.14 10.74,-4.96 10.64,-4.78 10.48,-4.64 10.32,-4.50 10.12,-4.42 9.92,-4.34 9.71,-4.32 9.50,-4.31 9.29,-4.36 9.09,-4.42 8.91,-4.53 8.73,-4.65 8.60,-4.82 8.47,-4.99 8.40,-5.19 8.33,-5.39 8.33,-5.60 8.33,-5.81 8.39,-6.02 8.46,-6.22 8.59,-6.39 8.71,-6.56 8.89,-6.68 9.06,-6.80 9.27,-6.86 9.47,-6.92 9.68,-6.91 9.89,-6.90 10.09,-6.83 10.29,-6.75 10.45,-6.61 10.62,-6.48 10.73,-6.30 10.84,-6.12 10.89,-5.91 10.94,-5.70 10.92,-5.49 10.90,-5.28 10.81,-5.09 10.72,-4.89 10.58,-4.74 10.43,-4.58 10.25,-4.48 10.06,-4.38 9.85,-4.34 9.64,-4.30 9.64,-4.30 9.64,-4.30 7.24,-3.19 4.83,-2.07 3.63,-2.13 2.42,-2.20 1.80,-1.51 1.18,-0.81 1.16,-0.65 1.14,-0.49 1.08,-0.33 1.02,-0.18 0.93,-0.04 0.84,0.08 0.71,0.19 0.59,0.30 0.44,0.38 0.30,0.45 0.14,0.49 -0.01,0.53 -0.18,0.53 -0.34,0.53 -0.50,0.49 -0.66,0.45 -0.81,0.38 -0.95,0.30 -1.08,0.19 -1.20,0.08 -1.29,-0.04 -1.39,-0.18 -1.44,-0.33 -1.50,-0.49 -1.52,-0.65 -1.54,-0.81 -1.54,-0.81 L -1.54,-0.81 Z"
       id="path52" />
  </g>
  <g
     transform="translate(13.043478260869506 118.695652173913) rotate(0 4.5652173913043725 2.608695652173907)"
     stroke="none"
     fill="#000000"
     id="g58"
     style="fill:#000000">
    <path
       d="M 0.61,-1.23 Q 0.61,-1.23 2.15,-1.18 3.69,-1.14 4.83,-0.44 5.97,0.25 7.72,2.29 9.47,4.32 9.64,4.46 9.80,4.60 9.90,4.78 10.01,4.96 10.06,5.17 10.10,5.38 10.08,5.59 10.05,5.80 9.96,5.99 9.87,6.19 9.73,6.34 9.58,6.49 9.39,6.59 9.20,6.69 8.99,6.72 8.78,6.76 8.57,6.72 8.36,6.68 8.18,6.58 7.99,6.48 7.84,6.33 7.70,6.17 7.61,5.98 7.52,5.79 7.50,5.57 7.48,5.36 7.53,5.16 7.57,4.95 7.68,4.77 7.79,4.59 7.96,4.45 8.12,4.31 8.32,4.24 8.52,4.16 8.73,4.15 8.94,4.14 9.14,4.20 9.35,4.25 9.52,4.37 9.70,4.49 9.83,4.66 9.95,4.83 10.02,5.04 10.09,5.24 10.09,5.45 10.08,5.66 10.02,5.86 9.95,6.07 9.82,6.23 9.69,6.40 9.51,6.52 9.33,6.64 9.13,6.69 8.92,6.75 8.71,6.74 8.50,6.72 8.30,6.64 8.11,6.56 8.11,6.56 8.11,6.56 5.63,5.68 3.14,4.80 2.22,4.22 1.30,3.64 0.34,2.43 -0.61,1.23 -0.75,1.13 -0.89,1.04 -1.00,0.92 -1.11,0.80 -1.19,0.65 -1.27,0.51 -1.31,0.35 -1.36,0.19 -1.36,0.02 -1.36,-0.13 -1.33,-0.30 -1.29,-0.46 -1.22,-0.61 -1.14,-0.75 -1.04,-0.88 -0.93,-1.01 -0.79,-1.10 -0.66,-1.20 -0.50,-1.26 -0.35,-1.32 -0.19,-1.35 -0.02,-1.37 0.13,-1.35 0.30,-1.34 0.45,-1.28 0.61,-1.23 0.61,-1.23 L 0.61,-1.23 Z"
       id="path56"
       style="fill:#000000" />
  </g>
  <g
     transform="translate(10 120.86956521739125) rotate(0 1.9565217391304373 -5)"
     stroke="none"
     fill="#000000"
     id="g62"
     style="fill:#000000">
    <path
       d="M -1.21,-0.53 Q -1.21,-0.53 -1.03,-1.80 -0.86,-3.07 -0.39,-4.07 0.07,-5.08 1.33,-7.58 2.58,-10.08 2.66,-10.28 2.74,-10.48 2.88,-10.64 3.02,-10.80 3.20,-10.91 3.38,-11.02 3.59,-11.06 3.80,-11.10 4.01,-11.08 4.22,-11.06 4.41,-10.97 4.61,-10.87 4.76,-10.73 4.91,-10.58 5.01,-10.39 5.11,-10.20 5.14,-9.99 5.18,-9.78 5.14,-9.57 5.10,-9.36 5.00,-9.18 4.90,-8.99 4.75,-8.85 4.59,-8.70 4.40,-8.61 4.20,-8.53 3.99,-8.50 3.78,-8.48 3.57,-8.53 3.37,-8.58 3.19,-8.69 3.00,-8.80 2.87,-8.96 2.73,-9.12 2.65,-9.32 2.58,-9.52 2.57,-9.73 2.56,-9.94 2.62,-10.15 2.67,-10.35 2.79,-10.53 2.92,-10.70 3.09,-10.83 3.26,-10.96 3.46,-11.02 3.66,-11.09 3.87,-11.09 4.08,-11.09 4.29,-11.02 4.49,-10.95 4.65,-10.82 4.82,-10.69 4.94,-10.51 5.06,-10.34 5.11,-10.13 5.17,-9.93 5.16,-9.71 5.14,-9.50 5.14,-9.50 5.14,-9.50 4.79,-7.26 4.43,-5.02 3.65,-3.22 2.86,-1.42 2.03,-0.44 1.21,0.53 1.12,0.67 1.04,0.81 0.93,0.92 0.82,1.03 0.68,1.12 0.54,1.20 0.39,1.25 0.24,1.30 0.08,1.31 -0.07,1.32 -0.23,1.29 -0.38,1.26 -0.53,1.20 -0.67,1.13 -0.80,1.03 -0.93,0.94 -1.03,0.81 -1.13,0.69 -1.19,0.54 -1.26,0.39 -1.29,0.24 -1.32,0.08 -1.31,-0.07 -1.30,-0.23 -1.25,-0.38 -1.21,-0.53 -1.21,-0.53 L -1.21,-0.53 Z"
       id="path60"
       style="fill:#000000" />
  </g>
  <g
     transform="translate(18.695652173913004 109.13043478260866) rotate(0 4.5652173913043725 2.608695652173907)"
     stroke="none"
     fill="#000000"
     id="g66"
     style="fill:#000000">
    <path
       d="M 0.46,-1.23 Q 0.46,-1.23 1.54,-1.06 2.62,-0.90 3.93,-0.21 5.24,0.46 7.48,2.24 9.71,4.01 9.86,4.16 10.00,4.32 10.09,4.51 10.18,4.70 10.20,4.91 10.23,5.13 10.18,5.33 10.14,5.54 10.03,5.72 9.92,5.90 9.75,6.04 9.59,6.18 9.39,6.26 9.20,6.34 8.98,6.35 8.77,6.36 8.57,6.30 8.36,6.24 8.19,6.12 8.01,6.01 7.88,5.84 7.75,5.67 7.69,5.46 7.62,5.26 7.62,5.05 7.62,4.84 7.69,4.64 7.76,4.44 7.88,4.27 8.01,4.10 8.19,3.98 8.37,3.86 8.57,3.80 8.78,3.75 8.99,3.76 9.20,3.77 9.40,3.85 9.59,3.93 9.76,4.07 9.92,4.20 10.03,4.39 10.14,4.57 10.18,4.78 10.23,4.98 10.20,5.19 10.18,5.41 10.09,5.60 10.00,5.79 9.86,5.95 9.71,6.10 9.52,6.20 9.33,6.30 9.12,6.33 8.91,6.37 8.70,6.33 8.49,6.30 8.31,6.20 8.12,6.10 8.12,6.10 8.12,6.10 5.78,4.88 3.45,3.66 2.41,3.03 1.37,2.40 0.45,1.81 -0.46,1.23 -0.60,1.15 -0.74,1.08 -0.86,0.98 -0.98,0.87 -1.07,0.74 -1.16,0.61 -1.22,0.46 -1.27,0.31 -1.29,0.16 -1.31,0.00 -1.29,-0.15 -1.27,-0.31 -1.22,-0.45 -1.16,-0.60 -1.07,-0.73 -0.98,-0.86 -0.87,-0.97 -0.75,-1.08 -0.61,-1.15 -0.47,-1.22 -0.31,-1.26 -0.16,-1.30 -0.00,-1.30 0.15,-1.30 0.30,-1.27 0.46,-1.23 0.46,-1.23 L 0.46,-1.23 Z"
       id="path64"
       style="fill:#000000" />
  </g>
  <g
     transform="translate(20 110.4347826086956) rotate(0 5.652173913043441 -4.347826086956516)"
     stroke="none"
     fill="#000000"
     id="g70"
     style="fill:#000000">
    <path
       d="M -1.20,0.68 Q -1.20,0.68 -2.12,0.01 -3.04,-0.66 -3.33,-1.81 -3.61,-2.97 -3.32,-4.69 -3.04,-6.40 -2.10,-7.65 -1.17,-8.89 0.37,-9.87 1.93,-10.85 3.00,-10.85 4.08,-10.86 5.67,-10.18 7.26,-9.50 8.20,-7.81 9.15,-6.13 8.69,-4.44 8.24,-2.76 6.65,-1.90 5.05,-1.05 5.07,-1.08 5.09,-1.12 4.88,-1.13 4.67,-1.15 4.47,-1.21 4.27,-1.27 4.09,-1.38 3.91,-1.49 3.76,-1.64 3.61,-1.79 3.50,-1.97 3.39,-2.15 3.33,-2.35 3.27,-2.55 3.25,-2.76 3.24,-2.97 3.28,-3.18 3.32,-3.39 3.40,-3.58 3.49,-3.77 3.62,-3.94 3.75,-4.10 3.92,-4.23 4.08,-4.36 4.28,-4.45 4.47,-4.53 4.68,-4.57 4.88,-4.61 6.06,-4.76 7.24,-4.91 9.98,-4.63 12.72,-4.35 12.93,-4.32 13.14,-4.28 13.33,-4.18 13.52,-4.08 13.66,-3.93 13.81,-3.78 13.90,-3.58 13.99,-3.39 14.01,-3.18 14.03,-2.97 13.99,-2.76 13.94,-2.55 13.83,-2.37 13.72,-2.19 13.56,-2.05 13.40,-1.91 13.20,-1.83 13.01,-1.76 12.79,-1.74 12.58,-1.73 12.38,-1.79 12.17,-1.85 12.00,-1.97 11.82,-2.08 11.69,-2.25 11.56,-2.42 11.50,-2.62 11.43,-2.83 11.43,-3.04 11.43,-3.25 11.49,-3.45 11.56,-3.65 11.69,-3.82 11.82,-3.99 12.00,-4.11 12.17,-4.23 12.38,-4.29 12.58,-4.34 12.79,-4.33 13.01,-4.32 13.20,-4.24 13.40,-4.16 13.56,-4.03 13.72,-3.89 13.83,-3.71 13.94,-3.52 13.99,-3.32 14.03,-3.11 14.01,-2.90 13.99,-2.69 13.90,-2.49 13.81,-2.30 13.66,-2.15 13.52,-1.99 13.33,-1.89 13.14,-1.79 12.93,-1.76 12.72,-1.72 12.72,-1.72 12.72,-1.72 10.01,-1.43 7.29,-1.14 6.19,-1.13 5.09,-1.12 4.88,-1.13 4.67,-1.15 4.47,-1.21 4.27,-1.27 4.09,-1.38 3.91,-1.49 3.76,-1.64 3.61,-1.79 3.50,-1.97 3.39,-2.15 3.33,-2.35 3.27,-2.55 3.25,-2.76 3.24,-2.97 3.28,-3.18 3.32,-3.39 3.40,-3.58 3.49,-3.77 3.62,-3.94 3.75,-4.10 3.92,-4.23 4.08,-4.36 4.28,-4.45 4.47,-4.53 4.67,-4.57 4.88,-4.61 4.52,-5.11 4.17,-5.61 3.09,-5.20 2.01,-4.79 1.53,-3.81 1.04,-2.83 1.12,-1.76 1.20,-0.68 1.26,-0.53 1.33,-0.37 1.35,-0.21 1.38,-0.04 1.36,0.11 1.35,0.28 1.30,0.44 1.24,0.59 1.15,0.73 1.06,0.87 0.94,0.99 0.82,1.10 0.68,1.19 0.53,1.27 0.37,1.32 0.21,1.36 0.04,1.37 -0.11,1.37 -0.28,1.34 -0.44,1.31 -0.59,1.23 -0.74,1.16 -0.87,1.06 -1.00,0.95 -1.10,0.82 -1.20,0.68 -1.20,0.68 L -1.20,0.68 Z"
       id="path68"
       style="fill:#000000" />
  </g>
  <g
     transform="translate(38.26086956521738 101.30434782608691) rotate(0 -0.21739130434781373 -5.652173913043484)"
     stroke="none"
     fill="#000000"
     id="g74"
     style="fill:#000000">
    <path
       d="M -0.94,0.94 Q -0.94,0.94 -2.20,0.19 -3.45,-0.54 -4.27,-1.56 -5.08,-2.58 -5.95,-4.03 -6.82,-5.48 -7.28,-7.01 -7.75,-8.54 -7.11,-10.38 -6.46,-12.22 -5.02,-12.84 -3.58,-13.46 -2.10,-13.36 -0.62,-13.26 1.05,-12.48 2.73,-11.69 4.39,-9.41 6.04,-7.13 6.15,-6.95 6.26,-6.77 6.31,-6.56 6.36,-6.35 6.34,-6.14 6.31,-5.93 6.23,-5.74 6.14,-5.54 5.99,-5.39 5.85,-5.23 5.66,-5.13 5.47,-5.03 5.26,-5.00 5.05,-4.96 4.84,-5.00 4.63,-5.03 4.45,-5.13 4.26,-5.23 4.11,-5.38 3.96,-5.53 3.87,-5.72 3.78,-5.92 3.76,-6.13 3.73,-6.34 3.78,-6.55 3.82,-6.75 3.93,-6.94 4.04,-7.12 4.20,-7.26 4.36,-7.40 4.56,-7.48 4.76,-7.56 4.97,-7.57 5.18,-7.58 5.39,-7.53 5.59,-7.47 5.77,-7.35 5.94,-7.23 6.07,-7.07 6.20,-6.90 6.27,-6.70 6.34,-6.49 6.34,-6.28 6.34,-6.07 6.28,-5.87 6.21,-5.67 6.08,-5.50 5.95,-5.33 5.78,-5.21 5.60,-5.09 5.40,-5.03 5.20,-4.97 4.98,-4.98 4.77,-4.99 4.57,-5.07 4.38,-5.15 4.21,-5.28 4.05,-5.42 4.05,-5.42 4.05,-5.42 2.66,-6.22 1.28,-7.03 0.32,-7.67 -0.63,-8.32 -1.97,-8.34 -3.32,-8.36 -2.82,-7.34 -2.31,-6.32 -1.43,-4.88 -0.54,-3.45 0.20,-2.19 0.94,-0.94 1.04,-0.81 1.14,-0.69 1.21,-0.54 1.27,-0.39 1.30,-0.23 1.33,-0.08 1.32,0.08 1.31,0.24 1.26,0.39 1.22,0.54 1.13,0.68 1.05,0.82 0.94,0.94 0.82,1.05 0.68,1.13 0.54,1.22 0.39,1.26 0.24,1.31 0.08,1.32 -0.08,1.33 -0.23,1.30 -0.39,1.27 -0.54,1.21 -0.69,1.14 -0.82,1.04 -0.94,0.94 -0.94,0.94 L -0.94,0.94 Z"
       id="path72"
       style="fill:#000000" />
  </g>
  <g
     transform="translate(34.78260869565213 97.82608695652169) rotate(0 1.9565217391304373 -1.5217391304347814)"
     stroke="none"
     fill="#000000"
     id="g78"
     style="fill:#000000">
    <path
       d="M -0.92,-1.08 Q -0.92,-1.08 1.06,-2.57 3.05,-4.07 3.25,-4.14 3.45,-4.21 3.67,-4.22 3.88,-4.22 4.08,-4.16 4.28,-4.09 4.46,-3.97 4.63,-3.85 4.75,-3.67 4.88,-3.50 4.94,-3.30 5.00,-3.09 4.99,-2.88 4.99,-2.67 4.91,-2.47 4.84,-2.27 4.70,-2.10 4.57,-1.94 4.39,-1.83 4.21,-1.71 4.01,-1.66 3.80,-1.61 3.59,-1.63 3.38,-1.65 3.18,-1.73 2.99,-1.82 2.83,-1.96 2.67,-2.10 2.57,-2.29 2.46,-2.47 2.42,-2.68 2.38,-2.89 2.41,-3.10 2.44,-3.31 2.54,-3.50 2.63,-3.69 2.78,-3.84 2.93,-3.99 3.13,-4.08 3.32,-4.18 3.53,-4.20 3.74,-4.23 3.95,-4.19 4.15,-4.15 4.34,-4.05 4.52,-3.94 4.66,-3.78 4.81,-3.62 4.89,-3.43 4.97,-3.23 4.99,-3.02 5.01,-2.81 4.95,-2.60 4.90,-2.40 4.79,-2.22 4.67,-2.04 4.51,-1.91 4.34,-1.77 4.34,-1.77 4.34,-1.77 2.63,-0.34 0.92,1.08 0.78,1.17 0.64,1.27 0.48,1.33 0.31,1.39 0.14,1.40 -0.02,1.42 -0.19,1.40 -0.36,1.38 -0.52,1.31 -0.68,1.25 -0.82,1.15 -0.96,1.05 -1.07,0.92 -1.18,0.79 -1.26,0.63 -1.34,0.48 -1.38,0.31 -1.42,0.14 -1.41,-0.02 -1.41,-0.19 -1.37,-0.36 -1.32,-0.52 -1.24,-0.67 -1.16,-0.83 -1.04,-0.95 -0.92,-1.08 -0.92,-1.08 L -0.92,-1.08 Z"
       id="path76"
       style="fill:#000000" />
  </g>
  <g
     transform="translate(40.869565217391255 80.43478260869561) rotate(0 6.304347826086996 2.826086956521735)"
     stroke="none"
     fill="#000000"
     id="g82"
     style="fill:#000000">
    <path
       d="M -0.53,-1.25 Q -0.53,-1.25 0.21,-1.91 0.96,-2.58 2.31,-3.30 3.65,-4.02 4.80,-4.26 5.94,-4.50 7.25,-3.89 8.56,-3.28 9.86,-2.22 11.16,-1.17 12.05,0.04 12.94,1.26 13.57,2.51 14.19,3.77 12.85,6.40 11.51,9.04 11.34,9.16 11.16,9.28 10.96,9.34 10.75,9.40 10.54,9.39 10.33,9.38 10.13,9.31 9.93,9.23 9.77,9.09 9.60,8.96 9.49,8.78 9.38,8.60 9.33,8.39 9.28,8.18 9.30,7.97 9.32,7.76 9.41,7.57 9.50,7.37 9.64,7.22 9.79,7.06 9.97,6.96 10.16,6.86 10.37,6.82 10.58,6.78 10.79,6.81 11.00,6.85 11.19,6.94 11.38,7.04 11.52,7.19 11.67,7.35 11.76,7.54 11.86,7.73 11.88,7.94 11.91,8.15 11.86,8.36 11.82,8.57 11.71,8.75 11.61,8.93 11.45,9.07 11.29,9.21 11.09,9.29 10.89,9.37 10.68,9.39 10.47,9.40 10.26,9.35 10.06,9.29 9.88,9.18 9.70,9.06 9.57,8.89 9.44,8.73 9.37,8.53 9.30,8.32 9.30,8.11 9.30,7.90 9.36,7.70 9.43,7.50 9.55,7.32 9.68,7.15 9.68,7.15 9.68,7.15 10.16,5.94 10.64,4.73 9.87,3.66 9.10,2.60 8.07,1.52 7.04,0.44 5.94,0.16 4.83,-0.12 3.68,0.47 2.53,1.08 1.53,1.16 0.53,1.25 0.37,1.30 0.22,1.34 0.05,1.35 -0.10,1.36 -0.26,1.32 -0.42,1.29 -0.57,1.22 -0.72,1.15 -0.85,1.05 -0.98,0.94 -1.08,0.81 -1.18,0.68 -1.24,0.53 -1.31,0.38 -1.33,0.22 -1.36,0.05 -1.35,-0.10 -1.33,-0.27 -1.28,-0.42 -1.23,-0.58 -1.14,-0.72 -1.05,-0.86 -0.94,-0.97 -0.82,-1.08 -0.68,-1.17 -0.53,-1.25 -0.53,-1.25 L -0.53,-1.25 Z"
       id="path80"
       style="fill:#000000" />
  </g>
  <g
     transform="translate(55.21739130434776 72.17391304347821) rotate(0 4.5652173913043725 4.1304347826087024)"
     stroke="none"
     fill="#000000"
     id="g86"
     style="fill:#000000">
    <path
       d="M 1.18,-0.59 Q 1.18,-0.59 2.21,0.45 3.25,1.49 3.93,2.94 4.61,4.38 5.39,5.29 6.17,6.20 7.10,5.11 8.03,4.02 8.20,3.89 8.37,3.76 8.57,3.70 8.78,3.63 8.99,3.63 9.20,3.64 9.40,3.70 9.60,3.77 9.77,3.90 9.94,4.03 10.06,4.21 10.18,4.39 10.23,4.59 10.29,4.80 10.27,5.01 10.26,5.22 10.18,5.42 10.10,5.62 9.96,5.78 9.82,5.94 9.64,6.05 9.46,6.15 9.25,6.20 9.04,6.24 8.83,6.22 8.62,6.19 8.43,6.10 8.23,6.01 8.08,5.86 7.93,5.72 7.83,5.53 7.73,5.34 7.70,5.13 7.67,4.92 7.70,4.71 7.74,4.50 7.84,4.31 7.94,4.13 8.10,3.98 8.25,3.84 8.44,3.75 8.64,3.66 8.85,3.64 9.06,3.62 9.27,3.67 9.47,3.71 9.66,3.82 9.84,3.94 9.97,4.10 10.11,4.26 10.19,4.46 10.26,4.66 10.27,4.87 10.28,5.08 10.23,5.29 10.17,5.49 10.05,5.67 9.93,5.84 9.93,5.84 9.93,5.84 8.86,7.61 7.79,9.39 5.95,9.84 4.12,10.29 3.08,9.52 2.04,8.76 1.22,7.55 0.40,6.35 -0.17,4.92 -0.75,3.50 -0.96,2.04 -1.18,0.59 -1.23,0.44 -1.28,0.29 -1.30,0.13 -1.32,-0.02 -1.29,-0.18 -1.27,-0.34 -1.21,-0.48 -1.15,-0.63 -1.06,-0.76 -0.97,-0.89 -0.84,-0.99 -0.72,-1.10 -0.58,-1.17 -0.44,-1.24 -0.28,-1.27 -0.13,-1.31 0.02,-1.31 0.18,-1.30 0.33,-1.26 0.49,-1.22 0.63,-1.14 0.77,-1.07 0.88,-0.96 1.00,-0.85 1.09,-0.72 1.18,-0.59 1.18,-0.59 L 1.18,-0.59 Z"
       id="path84"
       style="fill:#000000" />
  </g>
  <g
     transform="translate(56.52173913043475 74.78260869565213) rotate(0 2.6086956521739353 -2.173913043478265)"
     stroke="none"
     fill="#000000"
     id="g90"
     style="fill:#000000">
    <path
       d="M -0.36,-1.27 Q -0.36,-1.27 0.23,-2.20 0.83,-3.13 2.44,-4.06 4.06,-5.00 4.22,-5.14 4.37,-5.29 4.57,-5.38 4.76,-5.46 4.97,-5.48 5.18,-5.51 5.39,-5.46 5.60,-5.41 5.78,-5.30 5.96,-5.19 6.09,-5.02 6.23,-4.86 6.31,-4.66 6.38,-4.46 6.39,-4.25 6.40,-4.04 6.34,-3.84 6.28,-3.63 6.16,-3.46 6.04,-3.28 5.87,-3.15 5.70,-3.03 5.50,-2.96 5.30,-2.90 5.08,-2.90 4.87,-2.90 4.67,-2.97 4.47,-3.04 4.30,-3.17 4.13,-3.30 4.02,-3.48 3.90,-3.66 3.85,-3.86 3.79,-4.07 3.80,-4.28 3.82,-4.49 3.90,-4.69 3.98,-4.88 4.12,-5.04 4.26,-5.20 4.44,-5.31 4.62,-5.42 4.83,-5.46 5.04,-5.51 5.25,-5.48 5.46,-5.46 5.65,-5.37 5.85,-5.27 6.00,-5.13 6.15,-4.98 6.25,-4.79 6.35,-4.60 6.38,-4.39 6.41,-4.18 6.37,-3.97 6.34,-3.76 6.24,-3.58 6.13,-3.39 6.13,-3.39 6.13,-3.39 5.43,-1.40 4.72,0.58 3.69,1.35 2.66,2.13 1.51,1.70 0.36,1.27 0.20,1.29 0.04,1.32 -0.11,1.31 -0.26,1.29 -0.42,1.24 -0.57,1.19 -0.70,1.10 -0.84,1.02 -0.95,0.90 -1.06,0.79 -1.14,0.65 -1.22,0.51 -1.26,0.36 -1.30,0.20 -1.31,0.04 -1.31,-0.11 -1.28,-0.26 -1.25,-0.42 -1.18,-0.56 -1.11,-0.71 -1.01,-0.83 -0.91,-0.95 -0.78,-1.05 -0.65,-1.14 -0.51,-1.21 -0.36,-1.27 -0.36,-1.27 L -0.36,-1.27 Z"
       id="path88"
       style="fill:#000000" />
  </g>
  <g
     transform="translate(53.913043478260875 70.86956521739125) rotate(0 1.3043478260869392 -3.0434782608695627)"
     stroke="none"
     fill="#000000"
     id="g94"
     style="fill:#000000">
    <path
       d="M -1.32,-0.22 Q -1.32,-0.22 -1.65,-1.04 -1.99,-1.87 -0.36,-4.14 1.25,-6.41 1.40,-6.57 1.54,-6.73 1.72,-6.83 1.91,-6.93 2.12,-6.97 2.33,-7.01 2.54,-6.98 2.75,-6.96 2.94,-6.86 3.13,-6.77 3.28,-6.62 3.43,-6.47 3.52,-6.28 3.62,-6.09 3.64,-5.87 3.67,-5.66 3.63,-5.46 3.59,-5.25 3.49,-5.06 3.38,-4.88 3.22,-4.74 3.07,-4.59 2.87,-4.51 2.68,-4.43 2.46,-4.41 2.25,-4.39 2.05,-4.44 1.84,-4.49 1.66,-4.61 1.48,-4.72 1.35,-4.89 1.22,-5.06 1.14,-5.26 1.07,-5.45 1.06,-5.67 1.06,-5.88 1.12,-6.08 1.18,-6.29 1.31,-6.46 1.43,-6.63 1.60,-6.75 1.78,-6.88 1.98,-6.94 2.18,-7.00 2.40,-7.00 2.61,-6.99 2.81,-6.92 3.01,-6.84 3.17,-6.71 3.34,-6.58 3.45,-6.40 3.57,-6.22 3.62,-6.01 3.67,-5.81 3.65,-5.59 3.63,-5.38 3.55,-5.19 3.47,-4.99 3.47,-4.99 3.47,-4.99 2.98,-3.06 2.49,-1.12 1.90,-0.45 1.32,0.22 1.27,0.37 1.23,0.53 1.15,0.67 1.07,0.81 0.95,0.92 0.84,1.04 0.70,1.12 0.57,1.21 0.41,1.26 0.26,1.31 0.10,1.32 -0.05,1.34 -0.21,1.31 -0.37,1.28 -0.52,1.22 -0.67,1.16 -0.80,1.06 -0.93,0.96 -1.03,0.83 -1.13,0.71 -1.20,0.56 -1.27,0.42 -1.30,0.26 -1.33,0.10 -1.33,-0.05 -1.32,-0.22 -1.32,-0.22 L -1.32,-0.22 Z"
       id="path92"
       style="fill:#000000" />
  </g>
  <g
     transform="translate(71.73913043478262 56.08695652173908) rotate(0 3.0434782608695343 4.782608695652172)"
     stroke="none"
     fill="#000000"
     id="g98"
     style="fill:#000000">
    <path
       d="M 1.26,0.54 Q 1.26,0.54 1.34,1.60 1.43,2.67 1.42,3.87 1.42,5.07 2.01,6.24 2.60,7.42 4.42,7.22 6.24,7.01 6.43,6.92 6.62,6.83 6.84,6.81 7.05,6.79 7.25,6.83 7.46,6.88 7.64,6.98 7.83,7.09 7.97,7.25 8.10,7.42 8.18,7.61 8.26,7.81 8.28,8.02 8.29,8.23 8.23,8.44 8.18,8.64 8.06,8.82 7.94,9.00 7.77,9.13 7.60,9.26 7.40,9.32 7.20,9.39 6.99,9.39 6.78,9.40 6.57,9.33 6.37,9.26 6.20,9.13 6.03,9.01 5.91,8.83 5.79,8.66 5.73,8.45 5.68,8.25 5.69,8.03 5.70,7.82 5.78,7.62 5.85,7.43 5.99,7.26 6.13,7.10 6.31,6.99 6.49,6.88 6.70,6.83 6.90,6.79 7.12,6.81 7.33,6.83 7.52,6.92 7.71,7.01 7.87,7.15 8.02,7.30 8.12,7.49 8.22,7.67 8.26,7.88 8.30,8.09 8.26,8.30 8.23,8.51 8.13,8.70 8.03,8.89 7.88,9.03 7.72,9.18 7.72,9.18 7.72,9.18 4.96,10.66 2.19,12.13 0.59,11.33 -0.99,10.53 -1.75,9.43 -2.51,8.32 -2.92,6.86 -3.32,5.39 -3.36,4.24 -3.40,3.08 -3.17,1.95 -2.93,0.82 -2.09,0.14 -1.26,-0.54 -1.17,-0.68 -1.09,-0.82 -0.98,-0.94 -0.86,-1.06 -0.72,-1.15 -0.58,-1.24 -0.42,-1.29 -0.27,-1.34 -0.10,-1.35 0.05,-1.37 0.22,-1.34 0.38,-1.31 0.53,-1.25 0.68,-1.18 0.82,-1.08 0.95,-0.98 1.05,-0.85 1.16,-0.73 1.23,-0.58 1.30,-0.43 1.33,-0.26 1.36,-0.10 1.36,0.05 1.35,0.22 1.30,0.38 1.26,0.54 1.26,0.54 L 1.26,0.54 Z"
       id="path96"
       style="fill:#000000" />
  </g>
  <g
     transform="translate(82.60869565217388 47.82608695652169) rotate(0 3.4782608695652186 5)"
     stroke="none"
     fill="#000000"
     id="g102"
     style="fill:#000000">
    <path
       d="M 1.08,-0.86 Q 1.08,-0.86 2.45,0.08 3.83,1.03 4.65,2.07 5.47,3.10 6.10,4.15 6.74,5.20 7.40,7.23 8.06,9.25 8.11,9.46 8.17,9.67 8.15,9.88 8.14,10.09 8.06,10.29 7.98,10.48 7.84,10.64 7.70,10.80 7.52,10.91 7.34,11.02 7.13,11.06 6.92,11.11 6.71,11.08 6.50,11.06 6.31,10.97 6.11,10.88 5.96,10.73 5.81,10.58 5.71,10.39 5.61,10.20 5.58,9.99 5.55,9.78 5.58,9.57 5.62,9.36 5.72,9.18 5.82,8.99 5.98,8.85 6.13,8.70 6.33,8.61 6.52,8.53 6.73,8.51 6.94,8.48 7.15,8.53 7.36,8.58 7.54,8.69 7.72,8.80 7.86,8.97 7.99,9.13 8.07,9.33 8.15,9.52 8.16,9.74 8.17,9.95 8.11,10.15 8.05,10.36 7.93,10.53 7.81,10.71 7.64,10.83 7.47,10.96 7.26,11.03 7.06,11.09 6.85,11.09 6.64,11.09 6.44,11.02 6.24,10.95 6.07,10.82 5.90,10.69 5.78,10.51 5.66,10.34 5.66,10.34 5.66,10.34 3.69,8.17 1.72,6.01 0.94,4.99 0.16,3.96 -0.45,2.41 -1.08,0.86 -1.17,0.72 -1.25,0.58 -1.31,0.42 -1.36,0.26 -1.37,0.09 -1.38,-0.06 -1.35,-0.23 -1.32,-0.39 -1.26,-0.55 -1.19,-0.70 -1.09,-0.83 -0.99,-0.97 -0.86,-1.07 -0.72,-1.18 -0.57,-1.25 -0.42,-1.32 -0.26,-1.35 -0.09,-1.38 0.06,-1.37 0.23,-1.36 0.39,-1.31 0.55,-1.27 0.70,-1.18 0.84,-1.10 0.96,-0.98 1.08,-0.86 1.08,-0.86 L 1.08,-0.86 Z"
       id="path100"
       style="fill:#000000" />
  </g>
  <g
     transform="translate(77.39130434782606 49.5652173913043) rotate(0 3.6956521739130324 -2.391304347826086)"
     stroke="none"
     fill="#000000"
     id="g106"
     style="fill:#000000">
    <path
       d="M -0.80,-1.13 Q -0.80,-1.13 -0.37,-2.37 0.05,-3.62 0.93,-4.22 1.81,-4.82 4.08,-5.26 6.36,-5.71 6.56,-5.78 6.75,-5.85 6.97,-5.86 7.18,-5.86 7.38,-5.80 7.59,-5.73 7.76,-5.61 7.93,-5.48 8.05,-5.31 8.18,-5.14 8.24,-4.93 8.30,-4.73 8.29,-4.52 8.29,-4.31 8.21,-4.11 8.14,-3.91 8.00,-3.74 7.87,-3.58 7.69,-3.46 7.51,-3.35 7.30,-3.30 7.10,-3.25 6.89,-3.27 6.67,-3.29 6.48,-3.37 6.28,-3.46 6.13,-3.60 5.97,-3.74 5.87,-3.93 5.76,-4.11 5.72,-4.32 5.68,-4.53 5.71,-4.74 5.74,-4.95 5.84,-5.14 5.93,-5.33 6.08,-5.48 6.24,-5.63 6.43,-5.72 6.62,-5.82 6.83,-5.84 7.04,-5.87 7.25,-5.83 7.46,-5.79 7.64,-5.68 7.82,-5.58 7.97,-5.42 8.11,-5.26 8.19,-5.07 8.27,-4.87 8.29,-4.66 8.31,-4.45 8.25,-4.24 8.20,-4.04 8.09,-3.86 7.97,-3.68 7.80,-3.55 7.64,-3.41 7.64,-3.41 7.64,-3.41 6.40,-1.82 5.17,-0.23 4.31,0.44 3.44,1.12 2.12,1.12 0.80,1.13 0.66,1.21 0.51,1.29 0.35,1.33 0.18,1.37 0.02,1.38 -0.14,1.38 -0.30,1.34 -0.47,1.30 -0.62,1.23 -0.77,1.15 -0.89,1.04 -1.02,0.93 -1.12,0.80 -1.22,0.66 -1.28,0.51 -1.34,0.35 -1.36,0.18 -1.39,0.02 -1.37,-0.14 -1.35,-0.31 -1.29,-0.46 -1.24,-0.62 -1.14,-0.76 -1.05,-0.90 -0.93,-1.01 -0.80,-1.13 -0.80,-1.13 L -0.80,-1.13 Z"
       id="path104"
       style="fill:#000000" />
  </g>
  <g
     transform="translate(94.3478260869565 40.869565217391255) rotate(0 5.217391304347814 4.130434782608695)"
     stroke="none"
     fill="#000000"
     id="g110"
     style="fill:#000000">
    <path
       d="M 1.20,0.60 Q 1.20,0.60 1.11,1.40 1.03,2.20 1.59,3.15 2.15,4.10 2.89,5.17 3.63,6.23 4.66,6.77 5.69,7.31 7.03,7.10 8.37,6.89 8.97,5.84 9.58,4.79 8.56,4.02 7.55,3.24 5.79,2.15 4.03,1.05 2.80,0.55 1.57,0.04 1.42,0.19 1.27,0.35 1.08,0.44 0.89,0.54 0.68,0.57 0.47,0.60 0.26,0.56 0.05,0.52 -0.12,0.42 -0.31,0.32 -0.45,0.16 -0.60,0.00 -0.68,-0.18 -0.77,-0.37 -0.79,-0.59 -0.81,-0.80 -0.76,-1.00 -0.71,-1.21 -0.59,-1.39 -0.48,-1.57 -0.32,-1.71 -0.15,-1.84 0.04,-1.92 0.23,-1.99 0.45,-2.00 0.66,-2.01 0.86,-1.95 1.07,-1.89 1.24,-1.76 1.41,-1.64 1.54,-1.47 1.67,-1.30 1.73,-1.10 1.79,-0.89 1.79,-0.68 1.79,-0.47 1.71,-0.27 1.64,-0.07 1.51,0.09 1.38,0.26 1.20,0.37 1.02,0.49 0.82,0.54 0.61,0.59 0.40,0.58 0.19,0.56 -0.00,0.48 -0.19,0.40 -0.35,0.26 -0.51,0.12 -0.62,-0.06 -0.72,-0.24 -0.77,-0.45 -0.81,-0.66 -0.78,-0.87 -0.75,-1.08 -0.66,-1.27 -0.57,-1.46 -0.57,-1.46 -0.57,-1.46 2.64,-2.07 5.85,-2.67 8.01,-1.32 10.18,0.02 11.81,1.86 13.44,3.69 13.44,5.18 13.44,6.67 12.41,8.23 11.39,9.79 9.45,10.63 7.51,11.48 5.79,11.55 4.08,11.63 2.99,11.13 1.89,10.63 0.94,9.87 0.00,9.11 -1.06,7.34 -2.13,5.56 -2.41,4.47 -2.68,3.38 -2.61,2.09 -2.53,0.79 -1.86,0.09 -1.20,-0.60 -1.11,-0.73 -1.02,-0.87 -0.90,-0.98 -0.78,-1.09 -0.64,-1.16 -0.50,-1.24 -0.34,-1.28 -0.18,-1.32 -0.02,-1.33 0.13,-1.33 0.29,-1.30 0.45,-1.26 0.59,-1.19 0.74,-1.12 0.86,-1.01 0.98,-0.91 1.08,-0.77 1.17,-0.64 1.23,-0.49 1.29,-0.34 1.32,-0.18 1.34,-0.02 1.32,0.13 1.31,0.29 1.25,0.44 1.20,0.60 1.20,0.60 L 1.20,0.60 Z"
       id="path108"
       style="fill:#000000" />
  </g>
  <g
     transform="translate(106.08695652173913 36.08695652173908) rotate(0 2.3913043478260647 4.130434782608695)"
     stroke="none"
     fill="#000000"
     id="g114"
     style="fill:#000000">
    <path
       d="M 1.08,-0.75 Q 1.08,-0.75 2.33,0.23 3.57,1.22 4.28,2.47 4.99,3.73 5.41,5.57 5.84,7.41 5.89,7.62 5.95,7.83 5.93,8.04 5.92,8.25 5.84,8.45 5.75,8.64 5.61,8.80 5.47,8.96 5.29,9.07 5.11,9.17 4.90,9.22 4.69,9.26 4.48,9.23 4.27,9.21 4.08,9.11 3.89,9.02 3.73,8.87 3.58,8.72 3.49,8.53 3.39,8.35 3.36,8.13 3.33,7.92 3.36,7.72 3.40,7.51 3.51,7.32 3.61,7.13 3.76,6.99 3.92,6.85 4.12,6.76 4.31,6.67 4.52,6.66 4.73,6.64 4.94,6.68 5.15,6.73 5.33,6.85 5.51,6.96 5.64,7.12 5.78,7.29 5.85,7.49 5.93,7.68 5.94,7.90 5.94,8.11 5.88,8.31 5.82,8.52 5.70,8.69 5.58,8.86 5.41,8.99 5.24,9.12 5.03,9.18 4.83,9.25 4.62,9.24 4.41,9.24 4.21,9.17 4.01,9.10 3.84,8.96 3.67,8.83 3.56,8.66 3.44,8.48 3.44,8.48 3.44,8.48 2.21,7.18 0.99,5.88 0.45,4.83 -0.07,3.77 -0.58,2.26 -1.08,0.75 -1.16,0.61 -1.23,0.47 -1.27,0.32 -1.31,0.16 -1.31,0.00 -1.31,-0.15 -1.27,-0.30 -1.24,-0.46 -1.16,-0.60 -1.09,-0.74 -0.98,-0.86 -0.88,-0.98 -0.75,-1.07 -0.62,-1.16 -0.47,-1.22 -0.32,-1.28 -0.16,-1.30 -0.00,-1.32 0.14,-1.30 0.30,-1.28 0.45,-1.23 0.60,-1.17 0.73,-1.08 0.87,-0.99 0.97,-0.87 1.08,-0.75 1.08,-0.75 L 1.08,-0.75 Z"
       id="path112"
       style="fill:#000000" />
  </g>
  <g
     transform="translate(109.13043478260869 36.95652173913038) rotate(0 5.4347826086956275 -2.173913043478258)"
     stroke="none"
     fill="#000000"
     id="g118"
     style="fill:#000000">
    <path
       d="M -1.26,0.36 Q -1.26,0.36 -2.02,-0.38 -2.78,-1.13 -2.24,-3.60 -1.69,-6.07 -0.93,-6.95 -0.17,-7.83 1.20,-8.83 2.59,-9.82 3.78,-10.06 4.97,-10.30 6.90,-9.42 8.82,-8.54 9.40,-7.62 9.98,-6.70 10.14,-5.16 10.30,-3.62 9.86,-2.06 9.42,-0.50 8.66,0.52 7.90,1.56 7.05,2.21 6.19,2.85 5.31,3.18 4.44,3.51 4.22,3.58 4.00,3.66 3.76,3.68 3.53,3.70 3.30,3.66 3.07,3.62 2.86,3.53 2.64,3.44 2.46,3.30 2.27,3.16 2.12,2.98 1.98,2.80 1.88,2.59 1.78,2.38 1.73,2.15 1.68,1.93 1.69,1.69 1.70,1.46 1.76,1.24 1.83,1.01 1.94,0.81 2.06,0.61 2.22,0.44 2.38,0.27 2.58,0.15 2.78,0.02 4.40,-0.07 6.03,-0.18 7.08,0.11 8.12,0.40 9.90,1.48 11.68,2.56 11.88,2.63 12.08,2.71 12.25,2.84 12.41,2.98 12.52,3.16 12.64,3.34 12.69,3.54 12.73,3.75 12.72,3.96 12.70,4.17 12.61,4.37 12.53,4.56 12.38,4.72 12.24,4.88 12.05,4.98 11.87,5.08 11.66,5.12 11.45,5.16 11.24,5.13 11.03,5.10 10.84,5.00 10.65,4.91 10.50,4.75 10.35,4.60 10.26,4.41 10.17,4.22 10.14,4.01 10.11,3.80 10.15,3.59 10.20,3.38 10.30,3.20 10.41,3.01 10.57,2.87 10.73,2.73 10.92,2.65 11.12,2.57 11.33,2.55 11.54,2.54 11.75,2.59 11.95,2.64 12.13,2.76 12.31,2.88 12.44,3.04 12.57,3.21 12.65,3.41 12.72,3.61 12.72,3.82 12.72,4.03 12.66,4.24 12.60,4.44 12.47,4.61 12.35,4.78 12.17,4.91 12.00,5.03 11.79,5.09 11.59,5.15 11.38,5.14 11.17,5.13 11.17,5.13 11.17,5.13 8.90,4.96 6.63,4.78 5.53,4.15 4.44,3.51 4.22,3.58 4.00,3.66 3.76,3.68 3.53,3.70 3.30,3.66 3.07,3.62 2.86,3.53 2.64,3.44 2.46,3.30 2.27,3.16 2.12,2.98 1.98,2.80 1.88,2.59 1.78,2.38 1.73,2.15 1.68,1.93 1.69,1.69 1.70,1.46 1.76,1.24 1.83,1.01 1.94,0.81 2.06,0.61 2.22,0.44 2.38,0.27 2.58,0.15 2.77,0.02 3.09,-0.07 3.40,-0.18 4.05,-1.13 4.71,-2.07 4.18,-3.14 3.65,-4.21 2.71,-3.29 1.78,-2.36 1.52,-1.36 1.26,-0.36 1.29,-0.20 1.31,-0.04 1.30,0.10 1.28,0.26 1.23,0.41 1.18,0.56 1.10,0.70 1.01,0.83 0.90,0.94 0.78,1.05 0.64,1.13 0.51,1.21 0.35,1.25 0.20,1.30 0.04,1.30 -0.11,1.31 -0.26,1.28 -0.42,1.24 -0.56,1.17 -0.70,1.11 -0.83,1.00 -0.95,0.90 -1.04,0.78 -1.14,0.65 -1.20,0.50 -1.26,0.36 -1.26,0.36 L -1.26,0.36 Z"
       id="path116"
       style="fill:#000000" />
  </g>
  <g
     transform="translate(123.91304347826087 30.4347826086956) rotate(0 6.739130434782595 8.04347826086957)"
     stroke="none"
     fill="#000000"
     id="g122"
     style="fill:#000000">
    <path
       d="M 1.30,-0.32 Q 1.30,-0.32 2.41,0.40 3.52,1.14 3.15,2.16 2.78,3.18 2.57,1.67 2.36,0.16 2.11,-1.77 1.85,-3.72 1.83,-3.53 1.81,-3.33 1.80,-3.67 1.80,-4.02 1.87,-4.36 1.95,-4.69 2.10,-5.00 2.26,-5.31 2.48,-5.57 2.70,-5.83 2.98,-6.04 3.26,-6.24 3.58,-6.37 3.90,-6.50 4.24,-6.54 4.59,-6.59 4.93,-6.56 5.27,-6.52 5.60,-6.41 5.92,-6.29 6.21,-6.10 6.50,-5.91 6.73,-5.66 6.97,-5.40 7.13,-5.10 7.30,-4.80 7.39,-4.47 7.48,-4.13 8.82,-2.70 10.17,-1.27 11.20,0.28 12.24,1.84 13.22,3.56 14.20,5.29 14.89,6.86 15.58,8.44 15.90,10.33 16.22,12.22 16.06,14.13 15.89,16.03 15.39,17.94 14.88,19.86 14.82,20.06 14.76,20.26 14.63,20.43 14.50,20.60 14.33,20.73 14.16,20.85 13.95,20.91 13.75,20.97 13.54,20.96 13.32,20.95 13.13,20.88 12.93,20.80 12.76,20.67 12.60,20.53 12.49,20.35 12.37,20.17 12.32,19.97 12.28,19.76 12.29,19.55 12.31,19.34 12.40,19.14 12.49,18.95 12.63,18.79 12.77,18.63 12.96,18.53 13.14,18.43 13.35,18.39 13.56,18.35 13.77,18.38 13.98,18.41 14.17,18.51 14.36,18.61 14.51,18.76 14.66,18.91 14.75,19.10 14.84,19.29 14.87,19.50 14.90,19.71 14.86,19.92 14.81,20.13 14.71,20.31 14.60,20.50 14.44,20.64 14.28,20.78 14.09,20.86 13.89,20.94 13.68,20.96 13.47,20.97 13.26,20.92 13.05,20.87 12.88,20.75 12.70,20.63 12.57,20.47 12.44,20.30 12.36,20.10 12.29,19.90 12.29,19.69 12.29,19.47 12.29,19.47 12.29,19.48 12.29,17.92 12.29,16.37 11.79,14.90 11.29,13.43 10.81,12.09 10.34,10.75 9.75,9.44 9.15,8.12 8.29,6.57 7.43,5.02 6.47,3.58 5.52,2.14 4.69,1.01 3.86,-0.11 2.83,-1.72 1.81,-3.33 1.80,-3.67 1.80,-4.02 1.87,-4.36 1.95,-4.69 2.10,-5.00 2.26,-5.31 2.48,-5.57 2.70,-5.83 2.98,-6.04 3.26,-6.24 3.58,-6.37 3.90,-6.50 4.24,-6.54 4.59,-6.59 4.93,-6.56 5.27,-6.52 5.60,-6.41 5.92,-6.29 6.21,-6.10 6.50,-5.91 6.73,-5.66 6.96,-5.41 7.13,-5.10 7.30,-4.80 7.39,-4.47 7.48,-4.13 7.41,-3.49 7.35,-2.84 7.50,-1.74 7.66,-0.65 7.81,0.45 7.97,1.56 8.07,2.80 8.17,4.05 7.69,5.39 7.22,6.73 6.09,7.50 4.96,8.27 3.90,8.20 2.84,8.14 1.85,7.62 0.86,7.11 0.02,6.31 -0.81,5.52 -1.66,4.19 -2.52,2.85 -1.91,1.59 -1.30,0.32 -1.32,0.16 -1.34,0.00 -1.32,-0.15 -1.30,-0.31 -1.25,-0.46 -1.19,-0.62 -1.10,-0.75 -1.01,-0.88 -0.88,-0.99 -0.76,-1.10 -0.62,-1.18 -0.48,-1.25 -0.32,-1.29 -0.16,-1.33 -0.00,-1.33 0.15,-1.33 0.31,-1.29 0.47,-1.26 0.61,-1.18 0.76,-1.11 0.88,-1.00 1.00,-0.89 1.09,-0.76 1.19,-0.62 1.24,-0.47 1.30,-0.32 1.30,-0.32 L 1.30,-0.32 Z"
       id="path120"
       style="fill:#000000" />
  </g>
  <g
     transform="translate(149.13043478260852 23.043478260869563) rotate(0 15 -3.2608695652173907)"
     stroke="none"
     fill="#000000"
     id="g126"
     style="fill:#000000">
    <path
       d="M -0.39,-1.26 Q -0.39,-1.26 1.07,-2.28 2.54,-3.29 5.31,-4.27 8.08,-5.26 9.74,-5.70 11.40,-6.13 13.07,-6.56 14.75,-6.98 15.96,-7.29 17.17,-7.60 18.34,-7.86 19.51,-8.12 21.05,-8.22 22.58,-8.32 26.07,-7.86 29.55,-7.41 29.76,-7.37 29.97,-7.33 30.16,-7.22 30.34,-7.12 30.48,-6.96 30.62,-6.80 30.71,-6.61 30.79,-6.41 30.81,-6.20 30.82,-5.99 30.77,-5.78 30.72,-5.57 30.61,-5.40 30.49,-5.22 30.33,-5.08 30.16,-4.95 29.96,-4.88 29.76,-4.81 29.55,-4.80 29.34,-4.80 29.13,-4.86 28.93,-4.92 28.76,-5.04 28.58,-5.17 28.46,-5.34 28.34,-5.51 28.28,-5.72 28.21,-5.92 28.22,-6.13 28.23,-6.35 28.30,-6.55 28.37,-6.74 28.51,-6.91 28.64,-7.08 28.82,-7.19 29.00,-7.30 29.21,-7.35 29.41,-7.41 29.62,-7.39 29.84,-7.37 30.03,-7.29 30.23,-7.20 30.38,-7.06 30.54,-6.92 30.65,-6.73 30.75,-6.55 30.79,-6.34 30.83,-6.13 30.80,-5.92 30.77,-5.71 30.68,-5.52 30.58,-5.33 30.43,-5.18 30.28,-5.03 30.09,-4.93 29.90,-4.84 29.69,-4.81 29.48,-4.78 29.48,-4.78 29.48,-4.78 27.37,-4.44 25.26,-4.10 24.11,-3.81 22.96,-3.53 21.77,-3.41 20.59,-3.29 19.48,-3.04 18.38,-2.80 17.17,-2.49 15.96,-2.19 14.30,-1.77 12.64,-1.34 11.16,-0.96 9.68,-0.58 6.81,0.35 3.95,1.29 2.17,1.28 0.39,1.26 0.23,1.29 0.07,1.32 -0.08,1.31 -0.24,1.30 -0.39,1.25 -0.54,1.20 -0.68,1.12 -0.82,1.04 -0.93,0.92 -1.04,0.81 -1.13,0.67 -1.21,0.54 -1.26,0.38 -1.30,0.23 -1.31,0.07 -1.32,-0.08 -1.29,-0.24 -1.26,-0.39 -1.20,-0.54 -1.13,-0.69 -1.03,-0.81 -0.93,-0.94 -0.80,-1.04 -0.68,-1.13 -0.53,-1.20 -0.39,-1.26 -0.39,-1.26 L -0.39,-1.26 Z"
       id="path124"
       style="fill:#000000" />
  </g>
  <g
     transform="translate(183.0434782608694 10) rotate(0 5 6.521739130434781)"
     stroke="none"
     fill="#000000"
     id="g130"
     style="fill:#000000">
    <path
       d="M 0.13,-1.36 Q 0.13,-1.36 1.44,-1.79 2.74,-2.21 4.36,-2.00 5.98,-1.79 7.12,-1.49 8.25,-1.18 9.39,-0.41 10.54,0.35 11.39,2.28 12.25,4.20 12.38,5.97 12.50,7.74 12.14,9.05 11.77,10.37 10.00,11.99 8.22,13.62 8.05,13.74 7.88,13.87 7.68,13.93 7.48,14.00 7.26,14.00 7.05,13.99 6.85,13.92 6.65,13.85 6.48,13.72 6.32,13.59 6.20,13.41 6.08,13.23 6.03,13.03 5.97,12.82 5.99,12.61 6.00,12.40 6.08,12.20 6.17,12.01 6.31,11.85 6.44,11.69 6.63,11.58 6.81,11.47 7.02,11.43 7.23,11.39 7.44,11.41 7.65,11.44 7.84,11.53 8.03,11.62 8.19,11.77 8.34,11.92 8.43,12.11 8.53,12.30 8.56,12.51 8.59,12.72 8.56,12.93 8.52,13.14 8.42,13.32 8.32,13.51 8.16,13.65 8.00,13.80 7.81,13.88 7.62,13.97 7.40,13.99 7.19,14.01 6.99,13.96 6.78,13.91 6.60,13.80 6.42,13.69 6.28,13.53 6.15,13.36 6.07,13.16 5.99,12.96 5.99,12.75 5.98,12.54 6.04,12.34 6.10,12.13 6.22,11.96 6.34,11.78 6.34,11.78 6.34,11.78 6.76,10.51 7.19,9.24 7.30,7.69 7.42,6.14 7.26,4.96 7.11,3.78 6.03,3.44 4.96,3.09 3.60,2.90 2.25,2.71 1.05,2.04 -0.13,1.36 -0.29,1.32 -0.45,1.29 -0.60,1.21 -0.75,1.14 -0.87,1.03 -1.00,0.92 -1.10,0.79 -1.19,0.66 -1.26,0.50 -1.32,0.35 -1.34,0.19 -1.36,0.02 -1.35,-0.13 -1.33,-0.29 -1.28,-0.45 -1.22,-0.61 -1.13,-0.74 -1.04,-0.88 -0.92,-0.99 -0.80,-1.11 -0.65,-1.18 -0.51,-1.26 -0.35,-1.31 -0.19,-1.35 -0.02,-1.35 0.13,-1.36 0.13,-1.36 L 0.13,-1.36 Z"
       id="path128"
       style="fill:#000000" />
  </g>
  <g
     transform="translate(549.565217391304 179.1304347826087) rotate(0 12.826086956521749 1.0869565217391255)"
     stroke="none"
     fill="#000000"
     id="g134"
     style="fill:#000000">
    <path
       d="M 0.46,-1.26 Q 0.46,-1.26 2.16,-1.67 3.86,-2.07 5.31,-1.47 6.76,-0.87 8.58,-0.12 10.41,0.61 11.67,1.23 12.93,1.85 14.49,2.76 16.04,3.67 17.08,4.30 18.11,4.93 19.67,6.03 21.24,7.12 21.45,7.47 21.66,7.81 21.78,8.20 21.90,8.59 21.92,8.99 21.95,9.39 21.87,9.79 21.80,10.19 21.63,10.56 21.47,10.93 21.22,11.25 20.97,11.56 20.65,11.81 20.33,12.06 19.96,12.23 19.59,12.39 19.19,12.47 18.79,12.54 18.39,12.51 17.99,12.49 17.60,12.37 17.21,12.25 16.87,12.04 16.52,11.83 16.24,11.54 15.95,11.25 15.48,10.21 15.01,9.17 15.13,7.65 15.25,6.13 15.60,5.09 15.96,4.05 16.33,2.96 16.71,1.86 17.37,0.59 18.03,-0.67 18.86,-1.68 19.68,-2.69 21.97,-5.08 24.25,-7.48 24.37,-7.66 24.48,-7.83 24.65,-7.97 24.82,-8.10 25.02,-8.17 25.22,-8.24 25.43,-8.25 25.64,-8.25 25.85,-8.19 26.05,-8.12 26.22,-8.00 26.39,-7.87 26.51,-7.70 26.64,-7.53 26.70,-7.32 26.76,-7.12 26.75,-6.91 26.74,-6.69 26.67,-6.50 26.59,-6.30 26.46,-6.13 26.33,-5.97 26.15,-5.85 25.97,-5.74 25.76,-5.69 25.55,-5.64 25.34,-5.66 25.13,-5.68 24.94,-5.76 24.74,-5.85 24.58,-5.99 24.43,-6.14 24.32,-6.32 24.22,-6.51 24.18,-6.72 24.14,-6.92 24.17,-7.14 24.20,-7.35 24.30,-7.54 24.40,-7.72 24.55,-7.87 24.70,-8.02 24.89,-8.12 25.08,-8.21 25.29,-8.24 25.50,-8.26 25.71,-8.22 25.92,-8.18 26.10,-8.07 26.29,-7.97 26.43,-7.81 26.57,-7.65 26.65,-7.45 26.73,-7.26 26.75,-7.05 26.76,-6.83 26.71,-6.63 26.66,-6.42 26.66,-6.42 26.66,-6.42 26.09,-4.05 25.52,-1.67 25.07,-0.42 24.61,0.83 23.82,2.42 23.03,4.02 22.14,5.57 21.24,7.12 21.45,7.47 21.66,7.81 21.78,8.20 21.90,8.59 21.92,8.99 21.95,9.39 21.87,9.79 21.80,10.19 21.63,10.56 21.47,10.93 21.22,11.25 20.97,11.56 20.65,11.81 20.33,12.06 19.96,12.23 19.59,12.39 19.19,12.47 18.79,12.54 18.39,12.51 17.99,12.49 17.60,12.37 17.21,12.25 16.87,12.04 16.52,11.83 16.24,11.54 15.95,11.26 17.93,11.64 19.92,12.02 18.27,11.92 16.62,11.82 15.61,11.23 14.59,10.63 13.62,10.04 12.66,9.44 10.37,8.15 8.07,6.86 6.07,6.04 4.07,5.22 2.85,4.64 1.63,4.07 0.58,2.67 -0.46,1.26 -0.60,1.19 -0.75,1.12 -0.87,1.01 -0.99,0.90 -1.09,0.77 -1.18,0.64 -1.24,0.49 -1.30,0.34 -1.32,0.17 -1.35,0.01 -1.33,-0.14 -1.31,-0.30 -1.25,-0.45 -1.20,-0.61 -1.11,-0.74 -1.02,-0.88 -0.90,-0.99 -0.78,-1.10 -0.63,-1.17 -0.49,-1.25 -0.33,-1.29 -0.18,-1.33 -0.01,-1.34 0.14,-1.34 0.30,-1.30 0.46,-1.26 0.46,-1.26 L 0.46,-1.26 Z"
       id="path132"
       style="fill:#000000" />
  </g>
</svg>
