<?xml version="1.0" encoding="UTF-8" standalone="no"?>
<svg
   version="1.1"
   viewBox="0 0 379.69156710057223 190.61160610195483"
   width="379.69156710057223"
   height="190.61160610195483"
   filter="invert(93%) hue-rotate(180deg)"
   id="svg80"
   sodipodi:docname="011 Horizontal Projectile Motion.svg"
   inkscape:version="1.1 (c68e22c387, 2021-05-23)"
   xmlns:inkscape="http://www.inkscape.org/namespaces/inkscape"
   xmlns:sodipodi="http://sodipodi.sourceforge.net/DTD/sodipodi-0.dtd"
   xmlns="http://www.w3.org/2000/svg"
   xmlns:svg="http://www.w3.org/2000/svg">
  <sodipodi:namedview
     id="namedview82"
     pagecolor="#505050"
     bordercolor="#eeeeee"
     borderopacity="1"
     inkscape:pageshadow="0"
     inkscape:pageopacity="0"
     inkscape:pagecheckerboard="0"
     showgrid="false"
     inkscape:zoom="0.71349277"
     inkscape:cx="66.573905"
     inkscape:cy="-30.133452"
     inkscape:window-width="1366"
     inkscape:window-height="745"
     inkscape:window-x="-8"
     inkscape:window-y="-8"
     inkscape:window-maximized="1"
     inkscape:current-layer="svg80" />
  <!-- svg-source:excalidraw -->
  <defs
     id="defs4">
    <style
       id="style2">
      @font-face {
        font-family: &quot;Virgil&quot;;
        src: url(&quot;https://excalidraw.com/Virgil.woff2&quot;);
      }
      @font-face {
        font-family: &quot;Cascadia&quot;;
        src: url(&quot;https://excalidraw.com/Cascadia.woff2&quot;);
      }
    </style>
  </defs>
  <g
     transform="translate(59.84037662438186 46.46771293842775) rotate(0 129.41684354824446 63.38009640045986)"
     stroke="none"
     fill="#000000"
     id="g10">
    <path
       d="M 0,-1.36 Q 0,-1.36 1.76,-1.74 3.53,-2.12 5.76,-2.03 7.98,-1.94 9.25,-1.87 10.52,-1.81 12.33,-1.61 14.13,-1.41 16.25,-1.14 18.37,-0.86 20.83,-0.56 23.28,-0.27 26.53,0.20 29.79,0.68 33.57,1.45 37.36,2.21 40.71,2.91 44.06,3.62 48.22,4.47 52.39,5.33 56.37,6.23 60.34,7.13 65.23,8.37 70.12,9.61 74.51,10.66 78.91,11.71 83.97,13.09 89.02,14.47 94.13,16.00 99.24,17.53 103.82,19.13 108.40,20.73 113.47,22.52 118.53,24.31 122.95,26.24 127.36,28.17 132.32,30.27 137.27,32.37 141.60,34.42 145.93,36.46 150.05,38.23 154.17,40.01 158.95,42.28 163.73,44.56 168.57,47.25 173.40,49.94 177.39,52.18 181.39,54.43 185.52,57.12 189.65,59.81 193.18,62.27 196.71,64.72 200.39,67.47 204.07,70.21 207.63,73.08 211.19,75.95 214.07,78.27 216.94,80.60 219.98,83.32 223.02,86.04 225.68,88.50 228.34,90.96 231.25,93.69 234.15,96.42 236.99,99.30 239.83,102.18 242.18,104.49 244.53,106.80 246.89,109.37 249.25,111.93 251.40,114.49 253.54,117.04 254.93,119.06 256.32,121.09 257.74,123.10 259.17,125.10 259.27,125.28 259.38,125.47 259.42,125.68 259.47,125.88 259.44,126.10 259.41,126.31 259.32,126.50 259.23,126.69 259.08,126.84 258.93,126.99 258.74,127.09 258.55,127.19 258.34,127.22 258.13,127.25 257.92,127.21 257.72,127.17 257.53,127.07 257.34,126.97 257.20,126.81 257.06,126.65 256.97,126.46 256.88,126.27 256.86,126.05 256.84,125.84 256.89,125.64 256.94,125.43 257.05,125.25 257.17,125.07 257.33,124.93 257.49,124.80 257.69,124.72 257.89,124.65 258.10,124.64 258.32,124.63 258.52,124.69 258.72,124.75 258.90,124.87 259.07,125.00 259.20,125.17 259.32,125.34 259.39,125.54 259.45,125.74 259.45,125.96 259.45,126.17 259.38,126.37 259.30,126.57 259.17,126.74 259.04,126.90 258.86,127.02 258.69,127.14 258.48,127.19 258.28,127.24 258.06,127.23 257.85,127.21 257.66,127.13 257.46,127.05 257.30,126.91 257.14,126.77 257.14,126.77 257.14,126.77 255.50,125.05 253.86,123.34 252.05,121.86 250.23,120.38 247.60,118.21 244.98,116.03 242.58,113.63 240.18,111.22 237.79,108.88 235.41,106.54 232.65,103.74 229.89,100.94 227.01,98.23 224.13,95.52 221.51,93.09 218.88,90.67 215.95,88.05 213.02,85.42 210.16,83.10 207.30,80.77 203.84,77.97 200.38,75.17 196.77,72.48 193.17,69.80 189.72,67.40 186.28,65.00 182.31,62.41 178.34,59.83 174.37,57.59 170.39,55.36 165.72,52.76 161.05,50.16 156.39,47.93 151.73,45.69 147.51,43.88 143.28,42.07 139.06,40.08 134.85,38.09 129.86,35.97 124.87,33.86 120.66,32.01 116.45,30.17 111.40,28.37 106.35,26.57 101.90,25.00 97.46,23.43 92.41,21.89 87.37,20.35 82.40,18.90 77.44,17.45 73.03,16.25 68.62,15.05 63.88,13.64 59.14,12.22 55.25,11.27 51.36,10.32 47.19,9.46 43.01,8.60 39.67,7.89 36.32,7.19 32.67,6.40 29.01,5.62 25.85,5.09 22.68,4.56 20.21,4.25 17.73,3.93 15.63,3.64 13.53,3.36 11.88,3.12 10.23,2.88 8.90,2.78 7.58,2.68 5.55,2.40 3.53,2.12 1.76,1.74 0,1.36 -0.16,1.34 -0.32,1.32 -0.48,1.26 -0.63,1.20 -0.76,1.11 -0.90,1.02 -1.01,0.89 -1.12,0.77 -1.20,0.62 -1.27,0.48 -1.31,0.32 -1.35,0.16 -1.35,-0.00 -1.35,-0.16 -1.31,-0.32 -1.27,-0.48 -1.20,-0.62 -1.12,-0.77 -1.01,-0.89 -0.90,-1.02 -0.76,-1.11 -0.63,-1.20 -0.48,-1.26 -0.32,-1.32 -0.16,-1.34 0.00,-1.36 0.00,-1.36 L 0,-1.36 Z"
       id="path8" />
  </g>
  <g
     transform="translate(301.08363301422884 170.7279057393476) rotate(0 11.765167595294939 0.7751835146369697)"
     stroke="none"
     fill="#000000"
     id="g14">
    <path
       d="M 0.53,-1.99 Q 0.53,-1.99 2.40,-2.13 4.27,-2.26 6.17,-1.35 8.07,-0.43 9.67,0.36 11.27,1.17 13.20,2.23 15.13,3.29 16.10,3.95 17.08,4.62 17.80,5.60 18.53,6.58 17.11,7.18 15.69,7.79 15.69,6.61 15.69,5.42 16.27,3.86 16.85,2.29 17.56,0.14 18.27,-1.99 18.68,-3.23 19.09,-4.47 20.32,-6.12 21.54,-7.77 21.53,-7.98 21.52,-8.19 21.59,-8.40 21.65,-8.60 21.77,-8.77 21.89,-8.95 22.06,-9.07 22.24,-9.20 22.44,-9.26 22.64,-9.32 22.85,-9.32 23.07,-9.32 23.27,-9.24 23.47,-9.17 23.63,-9.04 23.80,-8.91 23.91,-8.73 24.03,-8.55 24.08,-8.35 24.13,-8.14 24.12,-7.93 24.10,-7.72 24.02,-7.52 23.94,-7.32 23.80,-7.17 23.66,-7.01 23.47,-6.90 23.29,-6.79 23.08,-6.75 22.87,-6.71 22.66,-6.74 22.45,-6.77 22.26,-6.86 22.07,-6.95 21.92,-7.10 21.76,-7.25 21.67,-7.44 21.57,-7.63 21.54,-7.84 21.51,-8.05 21.55,-8.26 21.59,-8.47 21.69,-8.66 21.80,-8.84 21.96,-8.98 22.11,-9.13 22.31,-9.21 22.50,-9.30 22.71,-9.32 22.92,-9.33 23.13,-9.28 23.34,-9.23 23.52,-9.12 23.70,-9.01 23.83,-8.84 23.97,-8.68 24.04,-8.48 24.11,-8.28 24.11,-8.28 24.11,-8.28 24.71,-5.40 25.30,-2.52 24.95,-1.32 24.59,-0.13 24.16,1.31 23.73,2.75 22.99,4.88 22.26,7.01 22.14,8.35 22.02,9.68 21.36,10.63 20.69,11.57 18.42,11.70 16.14,11.82 14.74,10.95 13.34,10.08 11.84,8.97 10.34,7.86 9.29,7.44 8.25,7.02 6.62,6.16 4.99,5.29 3.41,4.34 1.83,3.40 0.65,1.95 -0.53,0.51 -0.68,0.42 -0.82,0.34 -0.94,0.23 -1.05,0.11 -1.14,-0.02 -1.23,-0.16 -1.28,-0.31 -1.33,-0.47 -1.35,-0.63 -1.36,-0.80 -1.33,-0.96 -1.31,-1.12 -1.24,-1.27 -1.18,-1.42 -1.08,-1.55 -0.98,-1.69 -0.85,-1.79 -0.72,-1.89 -0.57,-1.96 -0.42,-2.03 -0.26,-2.07 -0.10,-2.10 0.05,-2.09 0.22,-2.09 0.37,-2.04 0.53,-1.99 0.53,-1.99 L 0.53,-1.99 Z"
       id="path12" />
  </g>
  <g
     transform="translate(11.396286536098046 56.29352823563764) rotate(359.22612179632046 -0.5355529585019099 56.379750968077566)"
     stroke="none"
     fill="#000000"
     id="g18">
    <path
       d="M 0.71,-0.04 Q 0.71,-0.04 1.29,1.69 1.87,3.42 2.08,5.91 2.29,8.41 2.41,11.25 2.53,14.09 2.62,17.26 2.70,20.44 2.75,25.30 2.80,30.15 2.80,36.38 2.80,42.60 2.77,49.63 2.74,56.65 2.59,63.38 2.44,70.10 2.17,76.45 1.91,82.80 1.42,90.32 0.94,97.84 0.78,102.14 0.62,106.44 0.57,108.26 0.53,110.08 0.49,110.29 0.45,110.50 0.35,110.69 0.24,110.87 0.09,111.02 -0.06,111.16 -0.25,111.25 -0.45,111.33 -0.66,111.35 -0.87,111.37 -1.08,111.32 -1.28,111.27 -1.46,111.16 -1.64,111.04 -1.78,110.88 -1.91,110.71 -1.99,110.51 -2.06,110.31 -2.07,110.10 -2.08,109.89 -2.02,109.69 -1.96,109.48 -1.83,109.31 -1.71,109.14 -1.54,109.01 -1.37,108.89 -1.16,108.82 -0.96,108.76 -0.75,108.76 -0.54,108.77 -0.34,108.84 -0.14,108.91 0.02,109.04 0.19,109.17 0.30,109.35 0.42,109.53 0.47,109.74 0.52,109.94 0.51,110.15 0.49,110.37 0.41,110.56 0.33,110.76 0.19,110.92 0.05,111.08 -0.13,111.18 -0.31,111.29 -0.52,111.33 -0.73,111.37 -0.94,111.34 -1.15,111.32 -1.34,111.22 -1.53,111.13 -1.68,110.98 -1.84,110.83 -1.93,110.64 -2.03,110.45 -2.06,110.24 -2.09,110.03 -2.09,110.03 -2.09,110.03 -2.06,108.21 -2.03,106.38 -2.02,102.10 -2.01,97.81 -2.36,90.30 -2.71,82.78 -2.93,76.41 -3.14,70.05 -3.18,63.35 -3.21,56.66 -3.25,49.63 -3.28,42.60 -3.29,36.38 -3.29,30.16 -3.26,25.31 -3.22,20.47 -3.17,17.31 -3.11,14.16 -3.06,11.37 -3.01,8.58 -2.96,6.08 -2.91,3.58 -2.44,1.81 -1.98,0.04 -1.97,-0.11 -1.95,-0.28 -1.90,-0.43 -1.85,-0.58 -1.76,-0.72 -1.67,-0.86 -1.55,-0.97 -1.43,-1.08 -1.29,-1.16 -1.15,-1.24 -0.99,-1.29 -0.84,-1.33 -0.67,-1.33 -0.51,-1.34 -0.35,-1.31 -0.19,-1.27 -0.05,-1.20 0.09,-1.13 0.22,-1.03 0.34,-0.92 0.44,-0.79 0.53,-0.66 0.60,-0.51 0.66,-0.36 0.69,-0.20 0.71,-0.04 0.71,-0.04 L 0.71,-0.04 Z"
       id="path16" />
  </g>
  <g
     transform="translate(59.934778757319975 58.00850319603083) rotate(359.22612179632046 0.35778816599227525 58.76199396672874)"
     stroke="none"
     fill="#000000"
     id="g22">
    <path
       d="M 1.30,-0.16 Q 1.30,-0.16 2.04,1.59 2.79,3.35 3.24,5.94 3.70,8.52 3.93,11.55 4.17,14.58 4.29,17.93 4.42,21.27 4.49,26.34 4.56,31.42 4.57,37.91 4.57,44.40 4.54,51.72 4.52,59.05 4.20,66.09 3.88,73.13 3.54,79.72 3.21,86.32 2.52,94.17 1.83,102.01 1.41,106.51 1.00,111.01 0.84,112.91 0.69,114.81 0.64,115.02 0.59,115.22 0.47,115.40 0.36,115.58 0.19,115.72 0.03,115.85 -0.16,115.92 -0.36,116.00 -0.57,116.00 -0.78,116.01 -0.99,115.95 -1.19,115.89 -1.36,115.77 -1.54,115.64 -1.66,115.47 -1.79,115.30 -1.85,115.10 -1.91,114.89 -1.91,114.68 -1.90,114.47 -1.83,114.27 -1.76,114.07 -1.63,113.90 -1.49,113.74 -1.32,113.62 -1.14,113.50 -0.93,113.45 -0.73,113.40 -0.51,113.42 -0.30,113.43 -0.11,113.52 0.08,113.60 0.24,113.74 0.40,113.88 0.50,114.07 0.61,114.25 0.65,114.46 0.69,114.67 0.66,114.88 0.63,115.09 0.54,115.28 0.45,115.47 0.30,115.62 0.15,115.77 -0.03,115.87 -0.22,115.96 -0.43,115.99 -0.64,116.02 -0.85,115.98 -1.06,115.94 -1.25,115.84 -1.43,115.74 -1.57,115.58 -1.72,115.42 -1.80,115.23 -1.89,115.03 -1.90,114.82 -1.92,114.61 -1.92,114.61 -1.92,114.61 -1.79,112.71 -1.65,110.81 -1.38,106.36 -1.11,101.91 -1.26,94.08 -1.41,86.25 -1.56,79.60 -1.70,72.95 -1.57,66.00 -1.43,59.05 -1.47,51.73 -1.51,44.41 -1.52,37.93 -1.53,31.45 -1.52,26.41 -1.50,21.37 -1.49,18.11 -1.48,14.85 -1.52,12.02 -1.57,9.18 -1.76,6.56 -1.95,3.94 -1.66,2.05 -1.37,0.16 -1.37,0.00 -1.38,-0.15 -1.34,-0.31 -1.30,-0.47 -1.22,-0.61 -1.15,-0.76 -1.04,-0.88 -0.93,-1.00 -0.80,-1.10 -0.67,-1.19 -0.51,-1.25 -0.36,-1.31 -0.20,-1.33 -0.04,-1.35 0.11,-1.33 0.27,-1.31 0.43,-1.25 0.58,-1.19 0.71,-1.10 0.85,-1.01 0.96,-0.89 1.06,-0.77 1.14,-0.62 1.22,-0.48 1.26,-0.32 1.30,-0.16 1.30,-0.16 L 1.30,-0.16 Z"
       id="path20" />
  </g>
  <g
     transform="translate(11.0718415786082 56.004550153591424) rotate(359.22612179632046 25.01355148583727 1.7866822489883702)"
     stroke="none"
     fill="#000000"
     id="g26">
    <path
       d="M 0.37,-1.30 Q 0.37,-1.30 1.65,-1.25 2.93,-1.20 4.72,-1.01 6.51,-0.83 8.35,-0.57 10.18,-0.30 12.30,-0.04 14.42,0.20 17.11,0.28 19.80,0.37 23.00,0.39 26.21,0.41 29.03,0.60 31.84,0.79 34.50,0.87 37.16,0.94 39.04,0.81 40.93,0.67 42.68,0.61 44.43,0.55 45.52,0.53 46.60,0.50 47.20,2.39 47.81,4.29 47.60,4.25 47.39,4.22 47.20,4.12 47.02,4.02 46.87,3.86 46.72,3.71 46.63,3.52 46.54,3.32 46.52,3.11 46.50,2.90 46.54,2.69 46.59,2.49 46.70,2.30 46.81,2.12 46.97,1.98 47.13,1.85 47.33,1.77 47.53,1.69 47.74,1.68 47.95,1.67 48.16,1.72 48.36,1.78 48.54,1.90 48.71,2.02 48.84,2.19 48.97,2.36 49.04,2.56 49.11,2.76 49.11,2.97 49.11,3.19 49.04,3.39 48.97,3.59 48.84,3.76 48.71,3.93 48.54,4.05 48.36,4.17 48.16,4.22 47.95,4.28 47.74,4.27 47.53,4.26 47.33,4.18 47.13,4.10 46.97,3.96 46.81,3.82 46.70,3.64 46.59,3.46 46.54,3.25 46.50,3.04 46.52,2.83 46.55,2.62 46.63,2.43 46.72,2.24 46.87,2.08 47.02,1.93 47.20,1.83 47.39,1.73 47.60,1.69 47.81,1.66 47.81,1.66 47.81,1.66 46.21,3.61 44.60,5.56 42.94,5.62 41.27,5.67 39.14,5.81 37.01,5.95 34.25,5.86 31.49,5.78 28.81,5.57 26.13,5.37 22.85,5.29 19.57,5.20 16.67,5.03 13.77,4.85 11.60,4.51 9.43,4.16 7.61,3.82 5.79,3.47 3.82,3.02 1.85,2.57 0.74,1.94 -0.37,1.30 -0.52,1.24 -0.67,1.18 -0.80,1.08 -0.93,0.98 -1.04,0.85 -1.14,0.73 -1.21,0.58 -1.28,0.43 -1.32,0.27 -1.35,0.11 -1.35,-0.04 -1.34,-0.21 -1.29,-0.37 -1.25,-0.52 -1.17,-0.67 -1.09,-0.81 -0.97,-0.93 -0.86,-1.05 -0.72,-1.13 -0.58,-1.22 -0.43,-1.28 -0.27,-1.33 -0.11,-1.34 0.05,-1.36 0.21,-1.33 0.37,-1.30 0.37,-1.30 L 0.37,-1.30 Z"
       id="path24" />
  </g>
  <g
     transform="translate(81.63472178351196 13.75) rotate(0 7.969952241973999 9.628134120456352)"
     stroke="none"
     fill="#d9480f"
     id="g30">
    <path
       d="M 1.32,-0.59 Q 1.32,-0.59 2.33,0.90 3.33,2.40 3.68,4.09 4.02,5.79 4.17,6.91 4.32,8.02 4.54,9.59 4.77,11.16 5.17,13.04 5.57,14.92 6.03,16.25 6.48,17.59 7.08,18.62 7.67,19.66 9.21,17.65 10.75,15.63 11.46,14.10 12.16,12.57 12.58,10.90 13.01,9.23 13.19,7.46 13.37,5.69 13.47,4.11 13.57,2.53 13.70,1.21 13.83,-0.10 14.02,-1.57 14.20,-3.04 14.18,-3.25 14.15,-3.46 14.20,-3.67 14.24,-3.88 14.35,-4.06 14.46,-4.24 14.62,-4.38 14.78,-4.52 14.97,-4.60 15.17,-4.68 15.38,-4.69 15.60,-4.71 15.80,-4.65 16.01,-4.60 16.18,-4.48 16.36,-4.36 16.49,-4.19 16.62,-4.03 16.69,-3.83 16.76,-3.62 16.76,-3.41 16.76,-3.20 16.70,-3.00 16.63,-2.80 16.50,-2.63 16.38,-2.46 16.20,-2.33 16.03,-2.21 15.82,-2.16 15.62,-2.10 15.40,-2.11 15.19,-2.12 14.99,-2.19 14.80,-2.27 14.63,-2.41 14.47,-2.54 14.36,-2.72 14.25,-2.91 14.20,-3.11 14.15,-3.32 14.17,-3.53 14.20,-3.74 14.28,-3.94 14.37,-4.13 14.52,-4.28 14.66,-4.44 14.85,-4.54 15.03,-4.64 15.24,-4.68 15.45,-4.71 15.66,-4.68 15.87,-4.65 16.06,-4.55 16.25,-4.45 16.40,-4.30 16.55,-4.15 16.64,-3.96 16.73,-3.76 16.73,-3.76 16.73,-3.76 17.33,-1.87 17.93,0.01 17.98,1.39 18.04,2.78 17.96,4.48 17.88,6.18 17.64,8.28 17.41,10.38 16.85,12.42 16.29,14.47 15.46,16.28 14.62,18.10 13.40,20.05 12.18,21.99 10.82,23.07 9.47,24.14 7.69,24.29 5.92,24.44 4.39,23.37 2.85,22.30 1.98,20.87 1.12,19.43 0.57,17.77 0.01,16.10 -0.42,14.02 -0.86,11.93 -1.18,9.36 -1.50,6.79 -1.76,5.13 -2.02,3.47 -1.67,1.70 -1.32,-0.06 -1.34,-0.23 -1.35,-0.39 -1.32,-0.55 -1.29,-0.71 -1.23,-0.86 -1.17,-1.01 -1.07,-1.14 -0.97,-1.27 -0.84,-1.37 -0.71,-1.48 -0.57,-1.55 -0.42,-1.62 -0.26,-1.65 -0.10,-1.68 0.05,-1.67 0.22,-1.67 0.37,-1.62 0.53,-1.57 0.67,-1.49 0.81,-1.41 0.93,-1.30 1.05,-1.18 1.13,-1.04 1.22,-0.90 1.27,-0.75 1.32,-0.59 1.32,-0.59 L 1.32,-0.59 Z"
       id="path28" />
  </g>
  <g
     transform="translate(104.40601390343778 27.647751392942382) rotate(0 0.8539234544972203 5.977464181480514)"
     stroke="none"
     fill="#d9480f"
     id="g34">
    <path
       d="M 1.33,-0.33 Q 1.33,-0.33 2.21,0.83 3.09,2.01 3.28,3.74 3.46,5.46 3.46,6.83 3.45,8.20 3.08,9.64 2.71,11.08 2.79,11.28 2.87,11.48 2.89,11.69 2.91,11.90 2.85,12.11 2.80,12.31 2.68,12.49 2.57,12.67 2.40,12.80 2.23,12.93 2.03,13.00 1.83,13.07 1.62,13.08 1.41,13.08 1.20,13.02 1.00,12.95 0.83,12.83 0.66,12.70 0.54,12.53 0.41,12.35 0.35,12.15 0.29,11.94 0.30,11.73 0.31,11.52 0.39,11.32 0.46,11.12 0.60,10.96 0.73,10.79 0.91,10.68 1.09,10.57 1.30,10.52 1.50,10.47 1.72,10.49 1.93,10.51 2.12,10.60 2.32,10.68 2.47,10.83 2.63,10.97 2.73,11.15 2.83,11.34 2.87,11.55 2.91,11.76 2.88,11.97 2.85,12.18 2.75,12.37 2.66,12.56 2.50,12.71 2.35,12.86 2.16,12.95 1.97,13.04 1.76,13.07 1.55,13.09 1.34,13.05 1.13,13.01 0.95,12.90 0.76,12.80 0.62,12.64 0.48,12.48 0.48,12.48 0.48,12.48 -0.43,10.45 -1.35,8.42 -1.47,7.17 -1.60,5.92 -1.69,4.57 -1.78,3.22 -1.56,1.77 -1.33,0.33 -1.35,0.16 -1.38,0.00 -1.36,-0.16 -1.34,-0.32 -1.28,-0.48 -1.22,-0.63 -1.13,-0.77 -1.03,-0.91 -0.91,-1.02 -0.78,-1.13 -0.64,-1.21 -0.49,-1.28 -0.33,-1.32 -0.17,-1.36 -0.00,-1.37 0.16,-1.37 0.32,-1.33 0.48,-1.29 0.63,-1.21 0.78,-1.13 0.90,-1.02 1.03,-0.91 1.12,-0.78 1.21,-0.64 1.27,-0.48 1.33,-0.33 1.33,-0.33 L 1.33,-0.33 Z"
       id="path32" />
  </g>
  <g
     transform="translate(338.43675813267623 141.38067126558775) rotate(0 6.206387635977712 6.954928362960999)"
     stroke="none"
     fill="#d9480f"
     id="g38">
    <path
       d="M 1.26,-0.28 Q 1.26,-0.28 1.45,1.06 1.63,2.41 1.76,3.59 1.89,4.77 2.10,6.63 2.31,8.48 2.94,10.48 3.56,12.48 4.15,13.45 4.75,14.43 5.62,15.34 6.50,16.25 7.27,15.40 8.03,14.54 8.49,13.38 8.96,12.22 9.36,10.77 9.76,9.32 10.10,7.86 10.45,6.41 10.58,4.78 10.71,3.15 10.64,1.72 10.57,0.30 10.86,-2.07 11.16,-4.45 11.19,-4.66 11.22,-4.87 11.32,-5.06 11.41,-5.25 11.56,-5.40 11.71,-5.55 11.91,-5.64 12.10,-5.74 12.31,-5.76 12.52,-5.79 12.73,-5.75 12.93,-5.71 13.12,-5.60 13.30,-5.50 13.44,-5.34 13.59,-5.18 13.67,-4.99 13.75,-4.79 13.77,-4.58 13.78,-4.37 13.73,-4.16 13.68,-3.95 13.56,-3.78 13.45,-3.60 13.28,-3.46 13.11,-3.33 12.91,-3.26 12.72,-3.19 12.50,-3.18 12.29,-3.18 12.09,-3.24 11.88,-3.31 11.71,-3.43 11.54,-3.56 11.42,-3.73 11.29,-3.90 11.23,-4.11 11.17,-4.31 11.18,-4.52 11.19,-4.73 11.26,-4.93 11.34,-5.13 11.47,-5.30 11.60,-5.46 11.78,-5.58 11.96,-5.69 12.17,-5.74 12.38,-5.79 12.59,-5.77 12.80,-5.75 12.99,-5.67 13.19,-5.58 13.35,-5.44 13.50,-5.30 13.61,-5.11 13.71,-4.93 13.75,-4.72 13.79,-4.51 13.79,-4.51 13.79,-4.51 14.22,-2.23 14.65,0.04 14.78,1.77 14.91,3.50 14.73,5.44 14.55,7.38 14.18,8.93 13.81,10.48 13.29,12.24 12.78,14.01 11.85,15.79 10.92,17.58 9.68,18.58 8.45,19.58 6.96,19.82 5.47,20.06 4.00,19.26 2.52,18.47 1.81,17.53 1.10,16.60 0.35,15.30 -0.40,14.00 -0.88,12.72 -1.35,11.43 -1.62,10.18 -1.89,8.93 -2.08,7.00 -2.28,5.06 -2.34,3.49 -2.40,1.92 -1.89,0.65 -1.37,-0.61 -1.33,-0.76 -1.29,-0.92 -1.22,-1.06 -1.14,-1.20 -1.04,-1.32 -0.93,-1.44 -0.80,-1.53 -0.67,-1.62 -0.52,-1.68 -0.36,-1.74 -0.21,-1.75 -0.05,-1.77 0.10,-1.75 0.26,-1.73 0.41,-1.68 0.56,-1.62 0.69,-1.53 0.83,-1.43 0.93,-1.31 1.04,-1.19 1.11,-1.05 1.19,-0.91 1.22,-0.75 1.26,-0.60 1.26,-0.44 1.26,-0.28 1.26,-0.28 L 1.26,-0.28 Z"
       id="path36" />
  </g>
  <g
     transform="translate(359.5002033436075 151.75129344653755) rotate(0 -0.05571769700185669 7.400669938975856)"
     stroke="none"
     fill="#d9480f"
     id="g42">
    <path
       d="M 1.30,-0.12 Q 1.30,-0.12 1.92,1.63 2.54,3.39 2.50,5.31 2.47,7.22 2.43,8.75 2.40,10.27 1.79,12.26 1.18,14.24 1.18,14.46 1.18,14.67 1.11,14.87 1.04,15.07 0.91,15.24 0.78,15.41 0.60,15.52 0.43,15.64 0.22,15.70 0.02,15.75 -0.19,15.74 -0.40,15.72 -0.60,15.64 -0.79,15.56 -0.95,15.42 -1.11,15.29 -1.22,15.10 -1.33,14.92 -1.37,14.71 -1.42,14.50 -1.39,14.29 -1.37,14.08 -1.28,13.89 -1.19,13.70 -1.04,13.54 -0.89,13.39 -0.70,13.29 -0.51,13.20 -0.30,13.16 -0.09,13.13 0.11,13.17 0.31,13.20 0.50,13.30 0.69,13.41 0.83,13.56 0.98,13.72 1.07,13.91 1.15,14.10 1.17,14.32 1.20,14.53 1.15,14.73 1.10,14.94 0.99,15.12 0.88,15.30 0.71,15.44 0.55,15.58 0.35,15.65 0.16,15.73 -0.05,15.74 -0.26,15.75 -0.46,15.69 -0.67,15.63 -0.84,15.51 -1.02,15.39 -1.14,15.22 -1.27,15.05 -1.34,14.85 -1.40,14.65 -1.40,14.65 -1.40,14.65 -1.90,12.40 -2.39,10.15 -2.34,8.56 -2.30,6.96 -2.15,5.38 -1.99,3.80 -1.70,1.96 -1.41,0.12 -1.41,-0.04 -1.40,-0.20 -1.36,-0.36 -1.31,-0.52 -1.23,-0.66 -1.15,-0.80 -1.04,-0.92 -0.92,-1.04 -0.79,-1.13 -0.65,-1.22 -0.49,-1.28 -0.34,-1.33 -0.17,-1.34 -0.01,-1.36 0.14,-1.33 0.31,-1.31 0.46,-1.25 0.61,-1.18 0.74,-1.09 0.88,-0.99 0.98,-0.86 1.09,-0.74 1.16,-0.59 1.23,-0.44 1.26,-0.28 1.30,-0.12 1.30,-0.12 L 1.30,-0.12 Z"
       id="path40" />
  </g>
  <g
     transform="translate(360.58305025260194 152.54344653754313) rotate(0 4.554258423985143 -1.3614353940037134)"
     stroke="none"
     fill="#d9480f"
     id="g46">
    <path
       d="M -0.61,-1.45 Q -0.61,-1.45 0.19,-2.29 1.00,-3.13 2.01,-3.54 3.02,-3.96 4.12,-4.00 5.23,-4.04 7.35,-3.06 9.47,-2.08 9.64,-1.95 9.81,-1.82 9.93,-1.65 10.05,-1.48 10.11,-1.27 10.17,-1.07 10.16,-0.85 10.15,-0.64 10.08,-0.44 10.00,-0.25 9.87,-0.08 9.73,0.07 9.55,0.18 9.37,0.30 9.16,0.34 8.95,0.39 8.74,0.37 8.53,0.35 8.34,0.26 8.14,0.18 7.99,0.03 7.83,-0.10 7.73,-0.29 7.63,-0.47 7.59,-0.68 7.55,-0.89 7.59,-1.10 7.62,-1.31 7.71,-1.50 7.81,-1.69 7.96,-1.84 8.12,-1.99 8.31,-2.08 8.50,-2.17 8.71,-2.20 8.92,-2.22 9.13,-2.18 9.34,-2.13 9.52,-2.03 9.70,-1.92 9.84,-1.76 9.98,-1.60 10.06,-1.40 10.15,-1.21 10.16,-1.00 10.17,-0.78 10.12,-0.58 10.07,-0.37 9.95,-0.19 9.83,-0.02 9.66,0.10 9.50,0.23 9.30,0.30 9.10,0.37 8.88,0.38 8.67,0.38 8.47,0.31 8.27,0.25 8.27,0.25 8.27,0.25 6.72,0.21 5.18,0.16 4.05,0.44 2.92,0.72 1.77,0.86 0.61,1.01 0.46,1.06 0.30,1.12 0.13,1.14 -0.02,1.15 -0.19,1.13 -0.35,1.11 -0.51,1.04 -0.66,0.98 -0.80,0.88 -0.93,0.79 -1.04,0.66 -1.15,0.53 -1.22,0.38 -1.29,0.24 -1.33,0.07 -1.37,-0.08 -1.36,-0.24 -1.36,-0.41 -1.32,-0.57 -1.28,-0.73 -1.20,-0.88 -1.12,-1.02 -1.00,-1.15 -0.89,-1.27 -0.75,-1.36 -0.61,-1.45 -0.61,-1.45 L -0.61,-1.45 Z"
       id="path44" />
  </g>
  <g
     transform="translate(358.30592104060935 157.44411647651896) rotate(0 5.408181878482356 1.1385646059962866)"
     stroke="none"
     fill="#d9480f"
     id="g50">
    <path
       d="M 0.62,-1.25 Q 0.62,-1.25 1.83,-1.22 3.04,-1.19 4.61,-0.84 6.18,-0.49 8.35,0.23 10.52,0.96 10.73,0.99 10.94,1.03 11.12,1.13 11.31,1.23 11.45,1.39 11.60,1.54 11.69,1.74 11.77,1.93 11.79,2.14 11.81,2.35 11.77,2.56 11.72,2.77 11.61,2.95 11.50,3.13 11.33,3.27 11.17,3.40 10.97,3.48 10.77,3.55 10.56,3.56 10.35,3.57 10.14,3.51 9.94,3.45 9.77,3.33 9.59,3.21 9.46,3.04 9.34,2.87 9.27,2.67 9.21,2.47 9.21,2.26 9.21,2.04 9.28,1.84 9.35,1.64 9.48,1.47 9.61,1.31 9.79,1.19 9.97,1.07 10.17,1.02 10.38,0.96 10.59,0.98 10.80,0.99 11.00,1.07 11.19,1.15 11.35,1.29 11.51,1.43 11.62,1.61 11.73,1.80 11.77,2.00 11.82,2.21 11.79,2.42 11.77,2.63 11.67,2.83 11.58,3.02 11.43,3.17 11.29,3.32 11.10,3.42 10.91,3.52 10.70,3.55 10.49,3.58 10.49,3.58 10.49,3.58 8.80,4.11 7.11,4.65 5.19,4.39 3.27,4.14 2.07,3.65 0.87,3.15 0.12,2.20 -0.62,1.25 -0.76,1.16 -0.90,1.06 -1.02,0.94 -1.13,0.81 -1.21,0.67 -1.30,0.52 -1.34,0.35 -1.38,0.19 -1.39,0.02 -1.39,-0.14 -1.35,-0.30 -1.32,-0.47 -1.24,-0.62 -1.16,-0.77 -1.05,-0.90 -0.95,-1.03 -0.81,-1.12 -0.67,-1.22 -0.51,-1.29 -0.36,-1.35 -0.19,-1.37 -0.02,-1.40 0.14,-1.38 0.30,-1.36 0.46,-1.31 0.62,-1.25 0.62,-1.25 L 0.62,-1.25 Z"
       id="path48" />
  </g>
  <g
     transform="translate(13.291223733215134 80.47400497312006) rotate(359.22612179632046 15.101584773811936 -9.80861435310414)"
     stroke="none"
     fill="#000000"
     id="g54">
    <path
       d="M -0.55,-2.13 Q -0.55,-2.13 1.24,-3.20 3.04,-4.27 4.77,-5.11 6.50,-5.95 7.99,-6.87 9.48,-7.79 11.68,-9.16 13.89,-10.53 15.53,-11.58 17.17,-12.63 18.83,-13.67 20.49,-14.72 21.74,-15.61 23.00,-16.50 24.34,-17.29 25.67,-18.08 27.72,-19.11 29.77,-20.14 29.97,-20.22 30.16,-20.29 30.38,-20.29 30.59,-20.30 30.79,-20.24 31.00,-20.17 31.17,-20.05 31.34,-19.92 31.46,-19.75 31.59,-19.58 31.65,-19.37 31.71,-19.17 31.70,-18.96 31.69,-18.75 31.62,-18.55 31.55,-18.35 31.41,-18.18 31.28,-18.02 31.10,-17.90 30.92,-17.79 30.71,-17.74 30.51,-17.69 30.30,-17.71 30.08,-17.73 29.89,-17.81 29.69,-17.90 29.54,-18.04 29.38,-18.18 29.28,-18.37 29.17,-18.55 29.13,-18.76 29.09,-18.97 29.12,-19.18 29.15,-19.39 29.25,-19.58 29.34,-19.77 29.49,-19.92 29.65,-20.07 29.84,-20.16 30.03,-20.26 30.24,-20.28 30.45,-20.31 30.66,-20.27 30.87,-20.23 31.05,-20.12 31.23,-20.02 31.38,-19.86 31.52,-19.70 31.60,-19.51 31.68,-19.31 31.70,-19.10 31.71,-18.89 31.66,-18.68 31.61,-18.47 31.49,-18.30 31.38,-18.12 31.21,-17.98 31.05,-17.85 31.05,-17.85 31.05,-17.85 29.37,-16.25 27.70,-14.65 26.50,-13.94 25.31,-13.24 23.96,-12.28 22.62,-11.33 20.96,-10.29 19.31,-9.25 17.63,-8.20 15.96,-7.14 13.72,-5.80 11.48,-4.45 9.80,-3.47 8.13,-2.50 6.33,-1.68 4.53,-0.86 2.52,-0.26 0.51,0.32 0.36,0.37 0.20,0.42 0.04,0.43 -0.11,0.43 -0.27,0.40 -0.43,0.37 -0.58,0.30 -0.72,0.24 -0.85,0.13 -0.98,0.03 -1.07,-0.08 -1.17,-0.21 -1.24,-0.36 -1.30,-0.51 -1.33,-0.67 -1.36,-0.83 -1.35,-0.99 -1.33,-1.15 -1.28,-1.31 -1.23,-1.46 -1.15,-1.60 -1.06,-1.74 -0.95,-1.85 -0.83,-1.96 -0.69,-2.04 -0.55,-2.13 -0.55,-2.13 L -0.55,-2.13 Z"
       id="path52" />
  </g>
  <g
     transform="translate(11.806054571288598 100.83385747032875) rotate(359.22612179632046 22.579520595911077 -15.95465253018402)"
     stroke="none"
     fill="#000000"
     id="g58">
    <path
       d="M -0.41,-2.70 Q -0.41,-2.70 0.60,-3.18 1.63,-3.67 3.10,-4.62 4.58,-5.57 5.62,-6.22 6.66,-6.88 7.65,-7.61 8.63,-8.35 10.51,-9.66 12.38,-10.98 14.10,-12.23 15.83,-13.49 17.86,-14.99 19.90,-16.49 21.72,-17.84 23.53,-19.19 25.43,-20.40 27.33,-21.62 29.17,-22.83 31.02,-24.03 32.77,-25.15 34.52,-26.26 35.81,-27.19 37.11,-28.11 38.30,-28.89 39.50,-29.67 41.47,-30.17 43.44,-30.67 43.45,-30.88 43.46,-31.09 43.53,-31.29 43.61,-31.49 43.74,-31.66 43.88,-31.82 44.06,-31.93 44.24,-32.05 44.44,-32.09 44.65,-32.14 44.86,-32.12 45.07,-32.10 45.27,-32.02 45.46,-31.93 45.62,-31.79 45.78,-31.65 45.88,-31.46 45.98,-31.27 46.02,-31.06 46.06,-30.86 46.03,-30.65 45.99,-30.44 45.90,-30.25 45.80,-30.06 45.65,-29.91 45.50,-29.76 45.31,-29.67 45.12,-29.57 44.91,-29.55 44.69,-29.52 44.49,-29.56 44.28,-29.61 44.09,-29.71 43.91,-29.82 43.77,-29.98 43.63,-30.14 43.55,-30.33 43.47,-30.53 43.45,-30.74 43.44,-30.95 43.49,-31.16 43.54,-31.37 43.66,-31.54 43.78,-31.72 43.94,-31.85 44.11,-31.98 44.31,-32.05 44.51,-32.13 44.72,-32.13 44.93,-32.13 45.14,-32.07 45.34,-32.00 45.51,-31.88 45.68,-31.75 45.80,-31.58 45.93,-31.40 45.99,-31.20 46.05,-31.00 46.05,-31.00 46.05,-31.00 43.81,-28.75 41.57,-26.49 40.44,-25.76 39.30,-25.02 37.93,-24.04 36.55,-23.07 34.82,-21.96 33.09,-20.86 31.21,-19.64 29.34,-18.43 27.55,-17.31 25.75,-16.18 23.91,-14.84 22.07,-13.50 20.01,-12.02 17.94,-10.55 16.16,-9.30 14.38,-8.04 12.51,-6.81 10.64,-5.57 9.54,-4.80 8.44,-4.02 7.36,-3.36 6.29,-2.70 4.47,-1.68 2.65,-0.66 1.53,-0.43 0.41,-0.20 0.26,-0.17 0.10,-0.14 -0.05,-0.14 -0.21,-0.15 -0.36,-0.19 -0.51,-0.24 -0.65,-0.32 -0.79,-0.40 -0.90,-0.51 -1.02,-0.62 -1.10,-0.75 -1.19,-0.89 -1.24,-1.04 -1.29,-1.19 -1.30,-1.34 -1.31,-1.50 -1.29,-1.66 -1.26,-1.82 -1.20,-1.96 -1.14,-2.11 -1.04,-2.24 -0.94,-2.36 -0.82,-2.46 -0.70,-2.56 -0.55,-2.63 -0.41,-2.70 -0.41,-2.70 L -0.41,-2.70 Z"
       id="path56" />
  </g>
  <g
     transform="translate(14.131834792392908 118.49441384687185) rotate(359.22612179632046 24.23673311671186 -14.816497312206216)"
     stroke="none"
     fill="#000000"
     id="g62">
    <path
       d="M -0.63,-2.51 Q -0.63,-2.51 0.54,-3.46 1.72,-4.42 3.01,-5.09 4.30,-5.76 6.02,-6.79 7.75,-7.83 9.00,-8.69 10.24,-9.55 12.15,-10.68 14.06,-11.81 15.93,-12.88 17.80,-13.94 20.12,-15.33 22.44,-16.73 25.11,-18.28 27.79,-19.84 30.00,-21.09 32.21,-22.35 34.37,-23.49 36.52,-24.63 38.29,-25.49 40.07,-26.34 41.21,-27.02 42.35,-27.70 44.68,-28.59 47.01,-29.48 47.17,-29.62 47.33,-29.76 47.52,-29.84 47.72,-29.92 47.93,-29.94 48.14,-29.95 48.35,-29.90 48.55,-29.84 48.73,-29.73 48.91,-29.61 49.04,-29.44 49.17,-29.27 49.24,-29.07 49.31,-28.87 49.31,-28.66 49.31,-28.45 49.25,-28.25 49.18,-28.04 49.06,-27.87 48.93,-27.70 48.76,-27.58 48.58,-27.46 48.38,-27.40 48.17,-27.34 47.96,-27.35 47.75,-27.36 47.55,-27.44 47.35,-27.51 47.19,-27.65 47.03,-27.78 46.91,-27.96 46.80,-28.15 46.75,-28.35 46.71,-28.56 46.73,-28.77 46.75,-28.98 46.83,-29.18 46.92,-29.37 47.07,-29.53 47.21,-29.68 47.40,-29.78 47.58,-29.88 47.79,-29.92 48.00,-29.96 48.21,-29.93 48.42,-29.89 48.61,-29.80 48.80,-29.70 48.95,-29.55 49.10,-29.39 49.19,-29.20 49.28,-29.01 49.30,-28.80 49.33,-28.59 49.29,-28.38 49.24,-28.17 49.13,-27.99 49.03,-27.81 49.03,-27.81 49.03,-27.81 46.70,-26.04 44.36,-24.26 43.08,-23.51 41.79,-22.76 40.09,-21.94 38.38,-21.12 36.28,-20.01 34.18,-18.90 31.98,-17.64 29.79,-16.39 27.14,-14.85 24.49,-13.31 22.12,-11.90 19.76,-10.49 17.90,-9.44 16.05,-8.39 14.22,-7.35 12.40,-6.31 11.03,-5.43 9.66,-4.55 7.84,-3.49 6.02,-2.44 4.77,-1.79 3.51,-1.14 2.07,-0.66 0.63,-0.19 0.48,-0.13 0.33,-0.07 0.17,-0.05 0.02,-0.03 -0.13,-0.04 -0.29,-0.06 -0.44,-0.11 -0.59,-0.17 -0.72,-0.26 -0.85,-0.34 -0.96,-0.46 -1.07,-0.58 -1.15,-0.72 -1.22,-0.86 -1.26,-1.01 -1.30,-1.17 -1.31,-1.33 -1.31,-1.48 -1.27,-1.64 -1.24,-1.80 -1.17,-1.94 -1.09,-2.08 -0.99,-2.20 -0.89,-2.32 -0.76,-2.41 -0.63,-2.51 -0.63,-2.51 L -0.63,-2.51 Z"
       id="path60" />
  </g>
  <g
     transform="translate(11.96038349603765 141.39828652594414) rotate(359.22612179632046 25.459163028817017 -15.954652530183992)"
     stroke="none"
     fill="#000000"
     id="g66">
    <path
       d="M -0.74,-2.57 Q -0.74,-2.57 1.13,-4.10 3.01,-5.63 4.96,-6.82 6.91,-8.01 8.91,-9.25 10.90,-10.48 13.38,-12.09 15.86,-13.70 18.27,-15.12 20.67,-16.53 23.63,-18.10 26.58,-19.67 29.13,-21.03 31.67,-22.40 34.31,-23.81 36.94,-25.22 38.98,-26.41 41.02,-27.59 42.89,-28.59 44.75,-29.58 46.04,-30.21 47.33,-30.83 48.82,-31.28 50.31,-31.73 50.50,-31.83 50.69,-31.93 50.90,-31.96 51.11,-32.00 51.32,-31.96 51.53,-31.93 51.72,-31.83 51.90,-31.73 52.05,-31.58 52.20,-31.42 52.29,-31.23 52.38,-31.04 52.40,-30.82 52.42,-30.61 52.38,-30.41 52.33,-30.20 52.22,-30.02 52.11,-29.83 51.95,-29.70 51.79,-29.56 51.59,-29.48 51.39,-29.40 51.18,-29.39 50.97,-29.38 50.76,-29.43 50.56,-29.49 50.38,-29.61 50.21,-29.73 50.08,-29.90 49.95,-30.07 49.88,-30.27 49.81,-30.47 49.81,-30.68 49.81,-30.89 49.88,-31.10 49.95,-31.30 50.08,-31.47 50.21,-31.64 50.38,-31.76 50.56,-31.87 50.76,-31.93 50.97,-31.99 51.18,-31.98 51.39,-31.97 51.59,-31.89 51.79,-31.81 51.95,-31.67 52.11,-31.53 52.22,-31.35 52.33,-31.17 52.38,-30.96 52.42,-30.76 52.40,-30.54 52.38,-30.33 52.29,-30.14 52.20,-29.95 52.05,-29.79 51.91,-29.64 51.91,-29.64 51.91,-29.64 50.54,-28.47 49.17,-27.30 47.95,-26.61 46.72,-25.92 44.92,-24.94 43.12,-23.97 41.02,-22.76 38.92,-21.55 36.29,-20.13 33.65,-18.71 31.10,-17.33 28.54,-15.96 25.66,-14.44 22.78,-12.92 20.42,-11.56 18.06,-10.20 15.49,-8.64 12.93,-7.09 10.90,-5.91 8.87,-4.74 6.95,-3.62 5.04,-2.51 2.87,-1.42 0.70,-0.33 0.55,-0.26 0.41,-0.19 0.25,-0.16 0.10,-0.12 -0.05,-0.13 -0.22,-0.13 -0.37,-0.18 -0.52,-0.22 -0.66,-0.30 -0.80,-0.38 -0.92,-0.49 -1.04,-0.60 -1.13,-0.73 -1.21,-0.87 -1.27,-1.02 -1.32,-1.17 -1.33,-1.33 -1.35,-1.49 -1.32,-1.65 -1.30,-1.81 -1.24,-1.95 -1.18,-2.10 -1.08,-2.23 -0.99,-2.36 -0.86,-2.46 -0.74,-2.57 -0.74,-2.57 L -0.74,-2.57 Z"
       id="path64" />
  </g>
  <g
     transform="translate(12.219708279532767 162.5491339779148) rotate(359.22612179632046 25.272490942212357 -16.389435138879648)"
     stroke="none"
     fill="#000000"
     id="g70">
    <path
       d="M -0.45,-2.72 Q -0.45,-2.72 0.77,-3.41 2.01,-4.09 3.31,-4.74 4.61,-5.40 6.83,-6.56 9.05,-7.72 10.78,-8.84 12.52,-9.97 15.08,-11.56 17.64,-13.14 20.62,-15.01 23.59,-16.88 25.81,-18.27 28.04,-19.65 30.53,-21.19 33.03,-22.74 35.53,-24.23 38.03,-25.73 39.93,-26.84 41.83,-27.95 43.35,-28.85 44.87,-29.74 47.10,-30.90 49.33,-32.05 49.52,-32.14 49.71,-32.24 49.92,-32.26 50.13,-32.29 50.34,-32.25 50.55,-32.21 50.73,-32.10 50.92,-32.00 51.06,-31.84 51.20,-31.68 51.28,-31.49 51.37,-31.29 51.38,-31.08 51.40,-30.87 51.35,-30.66 51.30,-30.46 51.18,-30.28 51.07,-30.10 50.90,-29.97 50.73,-29.83 50.53,-29.76 50.33,-29.69 50.12,-29.68 49.91,-29.68 49.71,-29.74 49.50,-29.80 49.33,-29.93 49.16,-30.05 49.04,-30.23 48.91,-30.40 48.85,-30.60 48.79,-30.80 48.80,-31.02 48.80,-31.23 48.88,-31.43 48.95,-31.63 49.08,-31.79 49.22,-31.96 49.40,-32.07 49.58,-32.19 49.78,-32.24 49.99,-32.29 50.20,-32.27 50.41,-32.25 50.61,-32.17 50.80,-32.08 50.96,-31.94 51.12,-31.80 51.22,-31.61 51.32,-31.43 51.36,-31.22 51.40,-31.01 51.37,-30.80 51.35,-30.59 51.25,-30.40 51.16,-30.21 51.00,-30.06 50.85,-29.91 50.85,-29.91 50.85,-29.91 48.80,-28.32 46.75,-26.74 45.23,-25.74 43.71,-24.74 41.83,-23.63 39.95,-22.52 37.47,-21.04 34.99,-19.56 32.50,-18.02 30.01,-16.48 27.79,-15.10 25.56,-13.71 22.56,-11.87 19.55,-10.03 17.01,-8.48 14.47,-6.94 12.62,-5.75 10.76,-4.55 8.47,-3.36 6.19,-2.17 4.70,-1.46 3.22,-0.75 1.84,-0.48 0.45,-0.22 0.29,-0.18 0.14,-0.15 -0.01,-0.15 -0.17,-0.15 -0.33,-0.19 -0.48,-0.23 -0.63,-0.31 -0.77,-0.38 -0.89,-0.49 -1.00,-0.60 -1.09,-0.73 -1.18,-0.87 -1.24,-1.02 -1.29,-1.17 -1.31,-1.33 -1.33,-1.49 -1.31,-1.65 -1.28,-1.81 -1.22,-1.96 -1.17,-2.10 -1.07,-2.24 -0.98,-2.37 -0.86,-2.47 -0.74,-2.58 -0.59,-2.65 -0.45,-2.72 -0.45,-2.72 L -0.45,-2.72 Z"
       id="path68" />
  </g>
  <g
     transform="translate(12.499569227135794 167.33941933050488) rotate(359.22612179632046 24.443884681811994 -0.4552620871911053)"
     stroke="none"
     fill="#000000"
     id="g74">
    <path
       d="M -0.15,-1.40 Q -0.15,-1.40 1.95,-1.98 4.06,-2.57 6.46,-2.72 8.87,-2.88 10.96,-2.94 13.05,-3.00 15.78,-2.91 18.51,-2.81 23.69,-2.61 28.86,-2.41 33.42,-2.16 37.99,-1.90 42.46,-1.64 46.92,-1.37 47.13,-1.33 47.34,-1.29 47.53,-1.19 47.71,-1.09 47.86,-0.94 48.00,-0.78 48.09,-0.59 48.18,-0.39 48.20,-0.18 48.22,0.02 48.17,0.23 48.13,0.43 48.01,0.61 47.90,0.80 47.74,0.93 47.58,1.07 47.38,1.14 47.18,1.22 46.97,1.23 46.76,1.24 46.55,1.18 46.35,1.12 46.17,1.00 46.00,0.88 45.87,0.71 45.74,0.54 45.68,0.34 45.61,0.14 45.61,-0.07 45.62,-0.28 45.69,-0.48 45.76,-0.68 45.89,-0.85 46.02,-1.02 46.19,-1.13 46.37,-1.25 46.58,-1.31 46.78,-1.36 46.99,-1.35 47.20,-1.33 47.40,-1.25 47.60,-1.17 47.76,-1.03 47.92,-0.89 48.03,-0.71 48.13,-0.53 48.18,-0.32 48.22,-0.11 48.20,0.09 48.17,0.30 48.08,0.49 47.99,0.68 47.84,0.84 47.69,0.99 47.51,1.09 47.32,1.18 47.11,1.22 46.90,1.25 46.90,1.25 46.90,1.25 42.42,1.43 37.94,1.62 33.33,1.73 28.73,1.85 23.53,1.73 18.34,1.60 15.74,1.50 13.14,1.39 11.10,1.41 9.06,1.44 6.78,1.49 4.51,1.53 2.33,1.42 0.15,1.32 -0.01,1.32 -0.17,1.31 -0.33,1.27 -0.49,1.23 -0.64,1.15 -0.79,1.08 -0.91,0.96 -1.03,0.85 -1.12,0.72 -1.22,0.58 -1.27,0.42 -1.33,0.27 -1.35,0.10 -1.37,-0.05 -1.35,-0.21 -1.32,-0.38 -1.26,-0.53 -1.20,-0.69 -1.11,-0.82 -1.01,-0.96 -0.89,-1.07 -0.76,-1.17 -0.62,-1.25 -0.47,-1.32 -0.31,-1.36 -0.15,-1.40 -0.15,-1.40 L -0.15,-1.40 Z"
       id="path72" />
  </g>
  <g
     transform="translate(38.88233672531703 164.96861654246612) rotate(359.22612179632046 10.357578255005052 -7.987566004339694)"
     stroke="none"
     fill="#000000"
     id="g78">
    <path
       d="M -0.67,-1.91 Q -0.67,-1.91 0.84,-3.12 2.36,-4.33 3.25,-4.93 4.13,-5.54 5.51,-6.42 6.88,-7.31 8.38,-8.36 9.87,-9.41 11.59,-10.72 13.31,-12.02 14.84,-13.12 16.37,-14.21 17.84,-15.21 19.30,-16.22 19.49,-16.32 19.67,-16.42 19.88,-16.46 20.09,-16.49 20.30,-16.46 20.51,-16.42 20.70,-16.33 20.89,-16.23 21.04,-16.07 21.18,-15.92 21.27,-15.73 21.36,-15.54 21.39,-15.32 21.41,-15.11 21.37,-14.91 21.32,-14.70 21.21,-14.52 21.10,-14.33 20.94,-14.19 20.78,-14.06 20.59,-13.98 20.39,-13.90 20.18,-13.88 19.96,-13.87 19.76,-13.93 19.55,-13.98 19.38,-14.10 19.20,-14.22 19.07,-14.39 18.94,-14.56 18.87,-14.76 18.80,-14.96 18.80,-15.17 18.80,-15.38 18.87,-15.59 18.94,-15.79 19.06,-15.96 19.19,-16.13 19.37,-16.25 19.54,-16.37 19.75,-16.43 19.95,-16.48 20.16,-16.47 20.38,-16.46 20.57,-16.38 20.77,-16.31 20.93,-16.17 21.10,-16.03 21.21,-15.85 21.32,-15.67 21.36,-15.46 21.41,-15.26 21.39,-15.04 21.37,-14.83 21.28,-14.64 21.19,-14.45 21.04,-14.29 20.90,-14.14 20.90,-14.14 20.90,-14.14 19.59,-13.01 18.29,-11.89 16.92,-10.59 15.56,-9.29 13.84,-7.77 12.11,-6.25 10.55,-5.13 8.99,-4.02 7.65,-3.17 6.32,-2.31 5.31,-1.63 4.30,-0.95 2.48,-0.25 0.67,0.44 0.52,0.50 0.37,0.57 0.21,0.59 0.04,0.62 -0.11,0.60 -0.27,0.59 -0.43,0.54 -0.58,0.49 -0.72,0.40 -0.86,0.31 -0.97,0.19 -1.09,0.07 -1.17,-0.06 -1.25,-0.20 -1.29,-0.36 -1.34,-0.52 -1.35,-0.68 -1.35,-0.85 -1.32,-1.01 -1.28,-1.17 -1.21,-1.32 -1.14,-1.47 -1.04,-1.59 -0.93,-1.72 -0.80,-1.82 -0.67,-1.91 -0.67,-1.91 L -0.67,-1.91 Z"
       id="path76" />
  </g>
</svg>
